<?xml version="1.0" standalone="no"?>
<!DOCTYPE svg PUBLIC "-//W3C//DTD SVG 20010904//EN"
 "http://www.w3.org/TR/2001/REC-SVG-20010904/DTD/svg10.dtd">
<svg version="1.0" xmlns="http://www.w3.org/2000/svg"
 width="1280.000000pt" height="2560.000000pt" viewBox="0 0 1280.000000 2560.000000"
 preserveAspectRatio="xMidYMid meet">
<metadata>
Created by potrace 1.16, written by Peter Selinger 2001-2019
</metadata>
<g transform="translate(0.000000,2560.000000) scale(0.100000,-0.100000)"
fill="#000000" stroke="none">
<path d="M6580 25179 c0 -5 -13 -6 -28 -3 -19 4 -32 1 -41 -10 -16 -19 -1 -22
17 -4 10 10 16 8 29 -5 11 -11 13 -17 5 -17 -7 0 -12 -6 -12 -14 0 -8 -7 -17
-16 -20 -20 -8 -54 2 -54 15 0 5 -7 9 -15 9 -8 0 -15 -4 -15 -8 0 -5 -19 -7
-42 -6 -24 1 -42 7 -41 13 3 10 -55 10 -72 -1 -15 -9 -96 8 -105 23 -7 10 -11
10 -25 -1 -13 -10 -13 -15 -3 -21 10 -7 9 -9 -4 -9 -11 0 -18 8 -18 20 0 21
-15 27 -25 10 -4 -6 -14 -1 -25 12 -19 22 -19 22 -20 3 0 -27 -38 -52 -46 -30
-4 8 -15 15 -26 15 -18 0 -19 -2 -7 -17 12 -14 12 -16 0 -8 -8 5 -32 9 -53 10
-21 1 -41 5 -45 8 -14 15 -33 6 -39 -18 -5 -21 -8 -23 -21 -10 -16 16 -38 21
-29 6 7 -11 -22 -23 -37 -14 -6 4 -8 0 -4 -9 4 -12 0 -14 -16 -10 -20 5 -21 4
-7 -13 14 -17 13 -18 -2 -12 -19 7 -25 -8 -8 -18 6 -4 7 -12 3 -18 -4 -7 2 -5
12 3 14 11 17 11 11 1 -7 -10 -3 -12 13 -6 16 5 27 1 36 -12 14 -17 14 -17 15
0 0 14 5 17 20 12 11 -4 20 -2 20 4 0 6 5 11 10 11 6 0 10 -7 10 -15 0 -8 -5
-15 -11 -15 -5 0 -7 -5 -4 -10 5 -8 11 -8 19 -1 17 14 51 -10 43 -30 -4 -10
-6 -9 -6 4 -1 10 -5 16 -9 13 -19 -11 -73 -16 -67 -6 3 5 2 10 -4 10 -5 0 -13
-4 -16 -10 -7 -12 -38 -8 -57 7 -7 6 -30 10 -50 9 -42 -2 -44 1 -23 27 7 11
11 25 8 33 -6 17 -26 19 -20 2 2 -7 0 -22 -6 -32 -9 -19 -10 -19 -23 -1 -8 10
-14 15 -14 9 0 -5 -19 -9 -42 -10 -23 0 -36 2 -30 4 7 2 10 8 7 12 -3 5 -13 6
-21 3 -9 -3 -20 0 -24 7 -7 11 -11 11 -22 -1 -8 -8 -18 -21 -21 -29 -4 -8 -5
-3 -4 12 3 17 -1 29 -10 32 -8 3 -11 1 -8 -4 4 -6 -7 -8 -28 -5 -34 6 -60 -10
-40 -24 5 -3 12 -14 16 -24 6 -17 6 -17 -18 0 -13 10 -22 24 -20 31 3 8 -8 12
-35 12 -25 0 -40 -5 -40 -12 -1 -8 -6 -5 -15 6 -7 10 -18 15 -24 12 -5 -4 -14
0 -18 9 -7 12 -16 13 -46 4 -20 -5 -41 -8 -46 -4 -5 3 -21 1 -36 -5 -20 -8
-31 -7 -42 2 -12 10 -17 9 -24 -4 -9 -17 -53 -14 -77 5 -11 8 -11 12 0 18 8 6
-2 8 -27 8 -31 0 -36 -2 -20 -9 16 -7 17 -9 3 -9 -9 -1 -24 6 -32 14 -11 12
-20 13 -34 6 -10 -5 -31 -8 -47 -6 -16 1 -35 -4 -43 -11 -7 -8 -22 -14 -33
-14 -10 0 -19 -4 -19 -10 0 -5 8 -10 18 -10 11 0 7 -5 -13 -16 -16 -8 -33 -21
-37 -27 -6 -9 -8 -9 -8 1 0 6 -4 12 -10 12 -5 0 -10 -7 -10 -15 0 -8 -9 -15
-21 -15 -11 0 -17 5 -14 10 3 6 1 10 -4 10 -6 0 -11 -4 -11 -10 0 -6 -25 -9
-56 -9 -30 1 -60 -3 -66 -9 -6 -6 -16 -8 -23 -6 -6 3 -17 -2 -24 -10 -7 -8
-18 -13 -25 -10 -8 3 -16 -2 -19 -10 -4 -9 -13 -16 -22 -16 -8 0 -15 -7 -15
-16 0 -14 -3 -14 -15 -4 -12 10 -15 10 -15 -4 0 -9 -8 -16 -19 -16 -10 0 -21
-7 -25 -15 -3 -8 -15 -15 -26 -15 -11 0 -20 -7 -20 -16 0 -8 -4 -13 -9 -9 -5
3 -17 -5 -25 -17 -15 -21 -16 -21 -16 -3 -1 17 -3 15 -16 -7 -16 -30 -27 -38
-18 -13 4 8 2 15 -4 15 -5 0 -12 -13 -14 -29 -3 -23 1 -32 16 -40 17 -8 13 -9
-23 -9 -26 1 -46 -3 -49 -10 -2 -7 -8 -9 -13 -6 -14 8 -56 -22 -64 -47 -5 -14
-13 -19 -26 -16 -10 3 -19 1 -19 -5 0 -14 -27 -38 -43 -38 -26 0 -47 -12 -40
-23 4 -6 -2 -8 -15 -5 -15 4 -22 2 -22 -9 0 -8 -4 -11 -10 -8 -5 3 -15 -3 -22
-15 -7 -11 -16 -20 -21 -20 -4 0 -26 -18 -48 -40 -22 -22 -45 -40 -50 -40 -6
0 -19 -9 -31 -20 -12 -11 -29 -20 -37 -20 -11 0 -12 -3 -4 -11 11 -11 6 -49
-6 -49 -17 1 -33 18 -22 24 14 9 14 26 0 26 -6 0 -13 -9 -16 -21 -3 -11 -11
-18 -18 -15 -8 3 -16 -2 -19 -10 -9 -22 -8 -24 9 -18 8 4 15 1 15 -5 0 -6 7
-11 15 -11 8 0 14 3 14 8 -3 19 2 23 16 12 20 -17 19 -29 -2 -29 -31 1 -54 -7
-62 -20 -4 -6 -17 -13 -29 -14 -27 -2 -33 -27 -15 -58 9 -15 12 -17 9 -5 -5
14 -2 17 10 12 12 -4 15 -2 10 9 -3 8 -1 15 4 15 19 0 11 -52 -9 -57 -11 -3
-22 -11 -25 -19 -3 -8 -10 -14 -15 -14 -15 0 -22 30 -11 50 14 26 -6 36 -30
15 -15 -14 -17 -21 -7 -36 6 -10 8 -22 4 -26 -5 -4 -11 -2 -15 4 -9 13 -52 -1
-52 -18 0 -15 -59 -69 -76 -69 -7 0 -18 -8 -23 -17 -6 -10 -11 -12 -11 -5 0
25 -17 11 -18 -15 0 -15 -8 -34 -19 -43 -11 -9 -24 -26 -27 -38 -4 -12 -14
-22 -22 -22 -8 0 -14 -9 -14 -19 0 -11 -9 -26 -21 -35 -14 -10 -22 -28 -25
-58 -2 -23 -5 -50 -6 -59 -1 -10 -9 -14 -19 -12 -20 6 -33 -45 -17 -65 6 -7 8
-15 4 -19 -3 -3 -6 -1 -6 5 0 7 -4 12 -10 12 -5 0 -10 -9 -10 -20 0 -11 -5
-20 -11 -20 -5 0 -15 -14 -21 -31 -7 -20 -15 -28 -25 -25 -8 3 -11 1 -8 -4 3
-6 1 -10 -4 -10 -6 0 -11 -6 -11 -14 0 -8 -11 -17 -25 -20 -14 -4 -24 -12 -22
-18 1 -7 -8 -14 -20 -16 -13 -2 -23 -8 -23 -13 0 -5 -9 -9 -20 -9 -13 0 -20
-7 -20 -20 0 -13 -7 -20 -20 -20 -11 0 -20 -7 -20 -15 0 -8 -14 -17 -34 -21
-19 -3 -37 -12 -40 -20 -3 -8 -12 -14 -19 -14 -8 0 -17 -14 -21 -31 -8 -43 -8
-59 3 -59 5 0 7 10 4 23 -5 21 -4 21 16 -3 16 -20 17 -26 6 -28 -10 -2 -13
-11 -9 -26 4 -18 -3 -29 -30 -50 -20 -15 -36 -24 -36 -20 0 4 -8 0 -17 -8 -10
-9 -28 -19 -40 -22 -12 -4 -25 -16 -28 -27 -4 -10 -12 -19 -18 -20 -54 -3 -77
-22 -77 -61 0 -16 -4 -27 -9 -24 -4 3 -7 -10 -5 -29 1 -19 -2 -35 -7 -35 -5 0
-9 -9 -9 -21 0 -15 -5 -19 -15 -15 -11 4 -15 -2 -15 -28 0 -54 25 -93 65 -100
19 -4 35 -12 35 -18 0 -9 3 -9 12 0 16 16 28 15 28 -3 0 -8 7 -15 15 -15 22 0
51 -48 37 -62 -9 -9 -15 -3 -25 22 -18 42 -33 22 -18 -23 6 -19 9 -61 7 -95
-2 -34 -1 -64 4 -67 13 -8 6 -59 -13 -85 l-17 -24 -1 39 -1 40 -8 -47 c-9 -54
-18 -71 -31 -63 -5 4 -9 -5 -9 -19 0 -14 -4 -28 -10 -31 -5 -3 -10 -13 -10
-20 0 -8 -20 -56 -44 -107 -24 -51 -47 -104 -51 -118 -4 -14 -14 -36 -22 -49
-8 -13 -15 -39 -15 -57 0 -19 -9 -45 -19 -58 -12 -16 -22 -48 -26 -88 -3 -35
-11 -81 -17 -103 -19 -64 -12 -148 15 -179 12 -14 29 -26 36 -26 7 0 13 -4 13
-10 0 -5 7 -10 15 -10 8 0 15 5 15 11 0 7 10 5 25 -5 34 -22 38 -20 32 12 -3
15 -2 34 3 42 6 9 14 -7 28 -51 12 -42 16 -68 9 -76 -5 -7 -7 -20 -3 -28 3 -8
2 -15 -2 -15 -12 0 -1 -72 14 -95 16 -24 8 -95 -11 -95 -8 0 -11 -29 -11 -102
1 -88 5 -111 26 -155 28 -58 45 -69 35 -23 -11 50 4 34 41 -42 19 -40 40 -73
47 -73 6 -1 32 -16 57 -34 25 -18 51 -35 58 -38 6 -3 12 -11 12 -19 0 -8 9
-14 20 -14 13 0 26 -13 39 -38 11 -21 27 -44 35 -51 17 -15 22 -71 6 -71 -5 0
-10 -4 -10 -10 0 -5 7 -10 15 -10 8 0 23 -10 35 -22 14 -15 20 -18 20 -7 1 12
2 12 9 -1 5 -8 6 -47 2 -87 -4 -39 -3 -70 0 -67 12 7 21 -35 14 -66 -4 -17
-13 -43 -21 -59 -13 -25 -12 -35 6 -92 13 -44 16 -65 8 -70 -6 -4 -8 -20 -4
-40 4 -19 7 -48 7 -66 -1 -24 3 -31 13 -27 10 4 16 -8 21 -45 5 -37 12 -52 26
-56 24 -8 24 -18 0 -69 -24 -52 -32 -86 -20 -86 5 0 9 -6 9 -13 0 -7 9 -18 20
-25 29 -18 59 -70 53 -92 -3 -10 0 -21 6 -24 6 -4 11 -16 11 -26 0 -10 8 -20
17 -22 14 -2 16 -14 14 -73 -2 -67 -1 -69 14 -47 22 31 43 14 42 -34 -1 -24 6
-41 22 -57 l24 -22 -6 23 c-3 12 -2 22 3 22 4 0 11 -19 17 -42 5 -26 14 -42
22 -40 18 4 81 -65 81 -89 0 -11 5 -17 10 -14 6 4 10 -6 10 -23 0 -17 6 -32
13 -35 10 -4 12 3 9 27 -3 23 -1 28 7 20 14 -13 17 -42 6 -66 -4 -11 -3 -18 4
-18 6 0 11 7 11 15 0 27 18 16 25 -15 4 -16 10 -30 15 -30 13 0 19 54 8 68
-17 20 -4 220 16 240 14 14 16 14 22 -2 6 -16 7 -16 19 1 22 29 170 25 250 -7
62 -26 116 -42 121 -38 7 8 -26 39 -35 33 -5 -2 -16 4 -26 15 -10 11 -29 20
-42 20 -13 0 -23 6 -23 14 0 8 -5 16 -12 18 -8 3 -11 28 -10 75 2 69 -9 101
-22 67 -4 -9 -9 -14 -13 -11 -3 4 0 13 6 21 7 8 14 40 17 72 2 32 11 65 19 74
8 9 15 27 15 39 0 12 4 19 10 16 6 -3 10 -2 10 4 0 5 -6 11 -12 14 -17 6 1 38
29 52 11 6 18 16 15 23 -2 6 1 12 6 12 6 0 13 8 15 18 4 16 5 16 6 0 1 -19 21
-26 21 -7 0 5 5 7 10 4 6 -4 17 -1 25 5 12 10 19 10 32 -1 15 -12 16 -12 10 4
-5 13 -1 17 19 17 17 0 28 7 31 19 3 12 12 17 29 15 20 -2 24 2 24 26 0 23 4
27 25 25 14 -2 25 1 25 7 0 6 -7 8 -15 4 -8 -3 -15 -1 -15 4 0 6 6 10 14 10 7
0 26 16 41 36 16 21 33 33 41 30 8 -3 14 -1 14 5 0 5 -7 12 -15 15 -8 4 -12
10 -9 15 3 5 10 7 15 4 5 -4 9 0 9 7 0 8 15 19 33 26 26 10 29 14 17 22 -12 8
-12 10 5 11 11 0 15 3 8 5 -7 3 -9 12 -6 20 3 8 0 14 -5 14 -7 0 -8 10 -3 28
5 15 6 42 3 60 -3 26 -1 32 14 32 11 0 27 7 37 14 15 12 16 18 8 35 -14 25
-14 41 -1 21 8 -13 10 -13 10 2 0 9 -6 18 -12 21 -9 3 -7 9 6 19 15 12 16 18
7 36 -13 24 -15 43 -2 23 7 -10 13 -11 30 -2 17 9 20 19 16 46 -3 26 0 35 10
35 8 0 15 7 15 15 0 8 -6 15 -12 15 -10 0 -9 3 1 9 11 7 11 9 0 14 -9 4 -7 6
5 6 17 1 17 3 -4 21 -25 21 -21 41 4 21 10 -8 16 -9 21 -1 3 5 2 10 -4 10 -6
0 -7 7 -4 17 4 11 3 14 -5 9 -8 -5 -12 1 -12 18 0 16 5 24 13 21 9 -4 11 9 10
47 -1 29 -5 62 -7 74 -3 11 2 31 12 45 9 13 15 32 14 42 -2 9 2 17 8 17 6 0
18 7 26 15 9 8 11 15 6 15 -4 0 -7 14 -4 30 2 17 9 30 14 30 6 0 7 7 4 16 -5
12 -2 15 10 10 13 -5 16 0 12 29 -2 19 0 35 4 35 4 0 8 6 8 14 0 8 9 18 20 21
13 4 20 15 20 31 0 13 5 24 10 24 6 0 10 -4 10 -10 0 -5 7 -10 16 -10 10 0 14
6 11 14 -3 8 -1 17 6 20 9 5 9 7 0 12 -21 9 -15 32 10 40 12 3 31 14 41 23 14
12 20 13 23 4 8 -22 21 -14 17 10 -2 12 -2 16 2 10 7 -15 34 -17 34 -3 0 6 -1
11 -2 13 -2 1 13 17 32 35 19 17 44 40 55 50 30 29 61 36 69 16 3 -9 13 -14
21 -10 8 3 19 -2 24 -12 7 -13 21 -17 53 -17 24 1 49 -5 57 -13 8 -7 23 -11
34 -8 11 3 31 -4 48 -16 15 -11 34 -18 43 -15 8 3 18 2 21 -3 3 -5 12 -7 20
-3 9 3 22 -1 31 -8 9 -7 18 -9 22 -3 10 13 52 17 52 5 0 -6 11 -11 25 -11 14
0 25 4 25 8 0 5 13 7 29 4 21 -3 37 2 52 17 12 11 37 24 56 27 18 3 33 12 33
20 0 17 36 19 44 2 3 -7 4 -4 3 7 -1 12 4 20 15 20 9 0 27 10 41 22 18 15 28
18 36 10 8 -8 11 -6 11 7 0 10 10 27 23 38 12 11 37 33 55 49 18 17 42 31 52
32 11 1 20 5 20 10 0 4 5 5 10 2 6 -3 13 1 16 10 5 12 14 15 30 11 19 -5 28 0
46 29 13 19 31 37 41 41 17 5 50 -18 45 -33 -2 -4 1 -8 7 -8 5 0 9 4 7 8 -1 5
6 6 17 2 12 -4 21 0 26 12 6 16 8 15 17 -7 9 -25 10 -25 24 -5 14 19 16 19 25
2 7 -12 15 -15 22 -9 27 21 43 20 43 -2 -1 -19 4 -21 44 -19 73 2 77 3 55 13
-17 7 -14 9 13 9 29 1 32 4 27 21 -3 11 -2 20 3 20 5 0 12 -9 15 -20 3 -13 10
-18 21 -14 12 5 15 2 10 -10 -7 -19 9 -21 25 -2 7 9 28 12 64 10 42 -3 46 -1
22 5 l-30 9 38 1 c23 1 36 -3 32 -9 -4 -6 7 -8 29 -6 24 4 41 -1 57 -15 12
-10 18 -19 13 -19 -5 0 -4 -4 1 -8 21 -15 35 -65 35 -125 l0 -62 19 24 c10 13
17 34 15 47 -1 12 4 25 12 28 10 4 13 -2 12 -22 -1 -15 -5 -31 -8 -37 -4 -5
-10 -23 -14 -40 -4 -16 -15 -38 -24 -49 -16 -17 -21 -46 -25 -143 -1 -24 -5
-43 -9 -43 -5 0 -8 -11 -8 -24 0 -37 39 -42 67 -8 26 32 28 24 8 -42 -16 -53
-19 -84 -7 -72 4 4 8 12 8 17 1 5 2 14 3 19 0 6 8 10 16 10 9 0 20 11 25 25 5
14 14 25 19 25 11 0 25 47 23 78 -1 14 3 22 11 19 15 -5 36 22 37 46 0 9 4 17
8 17 5 0 14 16 22 35 9 22 20 35 32 35 10 0 18 7 18 18 0 9 8 26 17 37 15 19
15 19 9 1 -7 -20 -7 -20 16 -1 13 11 29 26 36 35 12 13 15 13 28 -4 8 -11 14
-28 14 -38 0 -13 8 -18 25 -18 20 0 25 5 25 26 0 17 -4 23 -12 18 -8 -5 -9 -2
-5 10 4 9 3 15 -2 12 -15 -10 -29 18 -24 45 4 20 9 25 27 22 18 -4 21 -10 19
-41 -3 -35 -2 -36 8 -12 20 43 37 84 44 108 7 24 21 29 28 10 4 -10 6 -10 6 0
1 15 37 52 45 45 3 -3 8 6 12 21 3 14 11 26 16 26 6 0 8 -7 5 -15 -8 -19 13
-32 23 -14 17 30 47 58 55 51 4 -4 4 4 0 18 -7 24 -7 25 10 5 11 -14 18 -16
21 -7 3 6 12 12 21 12 10 0 12 6 8 20 -4 11 -2 20 4 20 6 0 11 -7 11 -15 0 -8
7 -15 16 -15 10 0 14 5 10 16 -3 9 -2 12 5 9 6 -4 35 9 65 29 30 20 59 34 63
31 5 -3 11 2 15 10 3 8 15 15 26 15 12 0 20 6 19 13 -3 23 1 37 11 37 6 0 10
-10 10 -21 0 -19 4 -18 34 15 41 43 49 45 36 10 -13 -33 -13 -34 5 -34 8 0 12
6 9 14 -3 8 -1 17 5 21 6 3 11 1 11 -6 0 -7 8 -6 25 5 30 20 35 20 35 1 0 -21
9 -19 29 7 10 12 24 23 32 24 8 2 27 6 43 9 24 5 28 3 22 -12 -6 -17 -5 -17 8
0 8 10 33 21 55 24 22 3 38 9 35 14 -3 5 2 9 10 9 10 0 16 -10 17 -27 2 -25 2
-26 6 -5 4 19 9 23 29 18 18 -5 24 -2 24 10 0 13 2 13 18 -2 16 -16 17 -16 20
-1 5 22 22 22 22 0 0 -11 3 -14 8 -8 9 14 50 17 57 4 4 -5 11 -9 18 -9 8 0 8
3 -1 12 -20 20 -14 28 12 17 13 -6 27 -21 31 -33 4 -11 8 -24 10 -28 1 -5 3
-15 4 -23 0 -8 7 -15 15 -15 30 0 38 -26 22 -75 -19 -54 -19 -58 -5 -49 6 3 3
-8 -5 -25 -9 -17 -16 -34 -15 -38 1 -4 0 -11 -1 -15 -1 -5 -3 -14 -4 -20 -1
-7 -9 -12 -19 -10 -22 4 -22 -7 1 -24 16 -13 16 -14 0 -8 -10 3 -18 1 -18 -5
0 -18 4 -26 12 -24 5 2 8 -2 8 -7 0 -6 -4 -10 -10 -10 -5 0 -10 -6 -10 -14 0
-8 -5 -16 -10 -18 -13 -4 -39 -75 -40 -108 0 -15 -4 -30 -9 -35 -5 -6 -21 -41
-36 -80 -16 -38 -36 -82 -46 -97 -11 -14 -19 -30 -19 -36 0 -5 -7 -15 -15 -22
-8 -7 -28 -40 -45 -74 -16 -33 -30 -57 -30 -53 0 5 -12 -5 -26 -22 -29 -35
-29 -65 0 -35 18 18 18 17 11 -6 -4 -14 -12 -31 -17 -37 -13 -16 -31 -6 -21
10 4 7 -2 5 -13 -3 -10 -8 -21 -16 -23 -17 -2 -2 4 -12 14 -23 21 -23 28 -50
14 -50 -6 0 -7 -4 -4 -10 3 -5 1 -19 -5 -30 -12 -23 -5 -60 12 -60 5 0 8 6 6
12 -3 7 1 19 9 26 7 7 13 21 13 30 0 9 20 39 45 67 25 27 45 44 45 38 0 -6 -7
-16 -15 -23 -8 -7 -15 -20 -15 -29 0 -9 -7 -26 -15 -38 -8 -12 -12 -29 -8 -39
4 -10 2 -15 -4 -11 -5 3 -20 -7 -32 -23 -12 -17 -18 -30 -14 -30 17 0 81 82
111 141 49 99 66 121 81 106 11 -10 12 -8 6 10 -4 16 -2 22 7 20 7 -2 10 -2 6
0 -15 9 -8 32 17 58 14 14 30 25 34 25 5 0 12 7 15 16 9 23 7 31 -4 14 -5 -8
-12 -11 -16 -7 -4 4 0 15 9 25 10 10 17 26 17 35 0 9 5 17 12 17 6 0 9 3 6 6
-7 7 27 131 40 147 13 16 35 144 29 161 -3 7 -2 17 2 22 14 15 22 74 10 74 -6
0 -6 7 1 20 6 12 12 43 13 70 1 28 6 50 11 50 5 0 6 23 3 50 -4 36 -3 50 6 50
8 0 13 21 15 58 4 88 7 106 17 122 5 8 10 20 11 25 4 38 6 40 13 21 6 -16 9
-16 22 -5 15 15 88 18 127 5 13 -5 22 -3 22 3 0 6 -10 12 -22 12 -17 1 -19 2
-5 6 9 2 17 9 17 14 0 5 7 9 15 9 8 0 15 -4 15 -10 0 -5 9 -10 20 -10 11 0 20
-5 20 -12 0 -9 3 -9 12 0 17 17 28 15 21 -5 -5 -15 -3 -16 8 -5 7 6 21 12 30
12 19 0 33 26 22 43 -4 7 0 8 11 4 10 -4 20 -7 23 -7 3 0 0 -7 -7 -15 -11 -13
-8 -15 18 -15 17 0 34 5 37 11 4 6 14 8 22 5 9 -4 24 3 36 16 13 16 21 19 24
11 6 -17 23 -17 23 0 0 8 13 13 35 14 19 1 35 -3 35 -8 0 -5 -10 -9 -22 -10
-18 0 -16 -3 12 -14 46 -18 50 -18 50 0 0 8 4 15 9 15 13 0 23 -17 14 -23 -5
-2 -2 -2 6 0 7 2 29 -6 48 -17 36 -21 59 -28 33 -9 -12 8 -11 9 5 5 11 -3 34
-8 50 -12 17 -4 40 -18 52 -31 12 -14 27 -22 32 -18 7 3 8 0 5 -9 -5 -13 1
-16 30 -16 26 0 34 -4 30 -14 -5 -12 20 -27 51 -30 6 -1 19 -9 30 -19 74 -64
89 -75 98 -70 6 4 8 -5 5 -21 -5 -22 -2 -26 13 -21 11 4 19 2 19 -5 0 -21 63
-110 77 -110 7 0 12 -3 11 -7 -1 -5 3 -18 10 -31 7 -12 14 -41 15 -65 1 -28
10 -51 24 -66 12 -13 19 -30 16 -37 -3 -8 3 -24 12 -34 14 -16 15 -20 4 -20
-10 -1 -9 -4 4 -14 9 -7 17 -20 17 -29 0 -9 4 -18 8 -21 5 -3 7 -21 6 -40 -2
-21 1 -36 7 -36 6 0 9 -6 6 -14 -3 -8 -3 -17 1 -21 4 -3 7 -12 7 -18 1 -17 14
-83 28 -140 7 -30 14 -42 19 -35 5 10 8 8 8 -4 0 -9 -5 -20 -10 -23 -8 -5 -7
-11 0 -20 7 -8 9 -19 5 -25 -4 -6 -2 -17 5 -25 6 -7 12 -38 14 -69 3 -45 9
-60 33 -85 32 -32 38 -69 13 -88 -18 -14 -10 -25 10 -13 7 5 15 21 16 37 1 15
5 36 9 46 5 11 2 17 -8 17 -8 0 -21 8 -28 17 -12 15 -12 16 2 11 11 -4 25 3
38 18 26 30 26 33 -1 27 -22 -4 -23 -4 -4 11 11 9 15 16 9 16 -5 0 -9 12 -9
28 1 15 -7 37 -18 50 -16 18 -17 22 -4 22 17 0 17 54 0 127 -6 28 -6 43 1 46
6 2 6 16 -2 40 -7 20 -10 41 -6 47 3 5 1 10 -6 10 -8 0 -9 4 0 13 7 9 7 17 0
24 -6 6 -10 30 -9 54 1 24 2 56 2 71 1 15 -5 35 -13 44 -8 10 -15 33 -16 53
-8 129 -11 159 -21 177 -6 11 -12 47 -13 79 -2 55 -17 105 -30 105 -3 0 -4 10
-2 23 3 14 -2 29 -11 36 -20 17 -21 32 -1 25 11 -5 15 0 14 17 0 13 -3 18 -6
12 -10 -26 -19 -12 -21 34 -1 25 3 52 9 59 8 10 5 18 -10 31 -22 18 -28 43
-11 43 6 0 10 9 10 20 0 13 -7 20 -20 20 -11 0 -20 4 -20 9 0 5 10 7 23 4 18
-4 19 -3 7 7 -12 9 -11 10 7 5 16 -4 25 0 35 17 7 13 11 26 10 30 -1 3 5 12
13 18 8 7 15 19 15 27 0 11 3 13 13 5 10 -8 74 -9 85 -1 2 2 17 6 29 8 4 0 -3
8 -15 17 -21 15 -25 15 -41 0 -20 -18 -71 -13 -71 6 0 6 7 7 16 4 8 -3 12 -2
9 3 -3 5 -1 13 5 16 8 5 8 11 1 19 -8 9 -6 18 5 32 12 15 15 16 10 2 -2 -9 2
-19 10 -22 15 -6 54 13 54 26 0 5 7 8 15 8 8 0 15 5 15 10 0 6 -5 10 -12 10
-7 0 -5 7 5 18 12 13 34 19 82 20 56 2 65 0 66 -15 0 -14 2 -15 6 -3 7 18 35
40 44 35 6 -4 9 15 9 54 0 24 0 24 15 5 15 -18 15 -17 13 15 -2 23 2 36 11 39
10 3 12 -1 8 -17 -7 -28 1 -27 12 2 5 14 4 25 -3 29 -7 5 -4 14 11 29 19 20
24 21 39 8 16 -13 17 -12 11 12 -7 27 9 99 21 99 4 0 13 14 20 32 6 17 15 29
18 25 10 -9 -25 -99 -44 -114 -13 -10 -13 -13 -1 -17 31 -10 48 -2 54 26 4 15
12 28 19 28 8 0 12 10 11 25 -2 14 1 27 6 31 5 3 9 24 9 47 1 23 7 53 15 67 8
14 15 48 15 75 0 28 7 70 16 95 16 44 23 74 27 115 1 11 6 23 10 26 5 3 11 36
13 73 5 56 3 66 -11 66 -13 0 -15 8 -9 53 7 55 14 75 14 39 0 -12 3 -22 8 -22
14 0 7 61 -8 70 -12 8 -12 12 -2 18 9 6 12 27 9 69 -2 33 -7 64 -9 69 -10 16
-18 86 -23 183 -3 51 -10 100 -16 108 -9 10 -9 17 -2 24 12 12 6 49 -8 49 -5
0 -9 5 -9 11 0 5 5 7 11 3 7 -4 7 1 -1 16 -6 12 -13 40 -15 63 -1 23 -8 43
-14 45 -6 2 -11 16 -11 32 0 16 -7 30 -16 34 -10 4 -13 13 -9 26 5 15 2 20
-10 20 -11 0 -15 5 -12 14 4 10 1 13 -9 9 -9 -3 -14 2 -14 16 0 12 -6 21 -14
21 -8 0 -17 7 -20 16 -9 22 -8 26 6 18 6 -4 8 -3 4 4 -3 6 -22 16 -42 22 -23
8 -34 17 -30 26 6 15 -51 30 -84 21 -11 -3 -18 -1 -14 4 3 5 16 9 30 9 13 0
24 5 24 10 0 6 -7 10 -15 10 -8 0 -15 5 -15 11 0 5 -4 8 -9 5 -4 -3 -23 -1
-40 4 -25 7 -32 6 -28 -3 3 -8 -7 -12 -27 -13 -17 -1 -23 1 -13 3 21 5 21 10
3 29 -8 7 -16 19 -18 25 -3 9 -9 9 -25 1 -26 -14 -50 7 -31 26 9 9 4 11 -20 9
-18 -1 -32 -6 -32 -12 0 -5 -8 5 -18 24 -20 41 -37 49 -45 22 -3 -14 0 -19 12
-16 11 2 16 -4 16 -21 0 -14 -4 -19 -10 -13 -5 5 -17 9 -26 9 -10 0 -19 6 -22
13 -3 9 -9 7 -24 -5 -11 -10 -22 -18 -26 -18 -3 0 -7 8 -10 18 -2 10 -7 2 -11
-20 -7 -34 -26 -54 -26 -28 0 5 -12 13 -26 16 -15 4 -23 12 -20 19 3 10 -2 11
-24 5 -24 -7 -28 -6 -23 8 5 11 2 14 -10 9 -9 -3 -17 -2 -17 4 0 6 -4 8 -9 4
-5 -3 -12 -1 -16 5 -4 6 -11 8 -16 4 -5 -3 -9 -2 -8 3 1 4 1 14 0 22 -1 11 -4
11 -18 0 -14 -12 -16 -12 -8 0 6 11 2 13 -19 9 -16 -3 -26 -1 -25 6 4 33 -1
39 -16 20 -12 -15 -14 -16 -15 -3 0 25 -46 62 -70 56 -14 -4 -30 4 -50 25 -17
16 -30 34 -30 39 0 5 -4 9 -10 9 -5 0 -7 -6 -4 -14 6 -17 -12 -31 -21 -16 -9
15 -25 12 -19 -4 3 -8 1 -17 -5 -20 -12 -8 -34 28 -23 39 4 3 0 5 -8 3 -8 -2
-26 -16 -41 -31 l-26 -28 -47 21 c-47 23 -67 40 -45 40 7 0 9 3 6 6 -4 4 -14
1 -23 -7 -14 -11 -18 -11 -22 -1 -3 10 -7 10 -18 1 -8 -7 -14 -7 -14 -1 0 20
-40 21 -50 1 -13 -24 -28 -24 -52 -2 -14 13 -23 15 -36 7 -12 -8 -27 -6 -57 7
-22 9 -57 16 -77 14 -25 -2 -35 0 -32 9 3 7 -4 12 -16 12 -11 0 -20 -6 -20
-13 0 -20 -20 -15 -21 5 -1 9 -1 20 -1 23 1 3 -16 6 -36 7 -20 1 -49 11 -64
22 -29 22 -43 26 -33 10 4 -6 -2 -7 -17 -1 -13 5 -22 15 -20 21 2 9 -5 10 -24
6 -21 -6 -25 -4 -21 8 6 16 -7 21 -45 18 -10 -1 -18 3 -18 9 0 8 -5 7 -15 -1
-12 -10 -15 -9 -15 5 0 15 -2 16 -17 4 -10 -8 -14 -9 -10 -2 4 6 3 14 -2 18
-5 3 -14 -3 -20 -12 -10 -17 -10 -17 -11 0 0 14 -4 16 -17 9 -11 -7 -23 -6
-38 4 -20 13 -55 13 -89 -1 -10 -4 -21 -4 -25 2 -3 5 -42 8 -86 7 -90 -2 -138
4 -130 16 8 13 -18 18 -38 8 -15 -8 -20 -5 -24 11 -3 12 -10 21 -15 21 -5 0
-6 -4 -3 -10 3 -5 2 -10 -4 -10 -5 0 -13 5 -16 11 -4 6 -13 8 -21 5 -7 -3 -20
1 -28 9 -20 21 -26 19 -26 -7 -1 -20 -2 -20 -15 7 -7 17 -14 24 -14 17 -1 -7
-6 -10 -11 -7 -6 4 -24 8 -40 10 -23 3 -30 0 -33 -18 -4 -20 -4 -20 -6 3 -2
33 -56 67 -78 48 -11 -9 -16 -9 -23 2 -7 11 -11 11 -23 1 -18 -14 -64 -6 -89
17 -19 16 -25 3 -8 -14 6 -6 1 -10 -17 -12 -29 -2 -40 -9 -30 -18 11 -11 51
-11 66 0 12 10 12 8 0 -11 -8 -13 -17 -23 -21 -23 -5 0 -8 -7 -8 -15 0 -8 -4
-15 -8 -15 -15 0 -30 22 -25 36 3 8 0 14 -6 14 -6 0 -11 7 -11 15 0 8 -4 15
-10 15 -5 0 -10 6 -10 13 0 14 27 16 48 3 6 -4 12 -2 12 3 0 6 -4 11 -10 11
-16 0 -23 2 -50 12 -13 5 -21 6 -17 2 4 -4 -2 -13 -13 -21 -20 -14 -29 -40
-10 -28 6 4 10 -9 9 -32 -1 -21 -3 -29 -6 -18 -7 30 -20 40 -36 26 -17 -14
-47 -4 -47 15 0 8 -4 14 -10 14 -16 0 -23 2 -47 11 -17 6 -21 5 -16 -6 4 -12
-1 -14 -27 -9 -23 5 -39 1 -61 -15 -16 -12 -29 -17 -29 -11 0 5 -5 10 -11 10
-5 0 -7 -4 -4 -10 11 -18 -22 -11 -49 11 -16 13 -33 18 -46 14 -11 -4 -20 -2
-20 4 0 6 6 11 13 11 8 0 7 4 -3 10 -15 9 -132 6 -149 -4 -5 -3 -11 1 -15 9
-3 8 -17 15 -31 15 -26 0 -35 -15 -12 -23 6 -2 0 -6 -14 -9 -14 -2 -34 -1 -45
3 -17 7 -17 8 4 8 27 1 29 17 2 24 -11 3 -20 1 -20 -4z"/>
<path d="M8390 21375 c0 -27 -70 -146 -116 -199 -24 -28 -42 -57 -39 -64 9
-24 -85 -176 -117 -190 -5 -2 -8 -12 -8 -22 0 -10 -6 -21 -12 -23 -10 -4 -10
-6 0 -6 7 -1 10 -5 7 -11 -3 -5 -1 -10 4 -10 6 0 11 6 11 14 0 13 12 28 103
131 47 53 86 116 87 142 1 4 17 20 37 36 23 17 30 27 20 27 -27 0 -20 39 12
69 36 33 55 121 27 121 -9 0 -16 -7 -16 -15z"/>
<path d="M9982 20064 c-4 -8 -5 -42 -2 -78 3 -35 2 -62 -1 -60 -4 2 -12 -3
-19 -11 -8 -9 -28 -15 -54 -14 -32 1 -36 3 -16 8 14 3 26 14 26 23 1 10 -2 15
-7 12 -5 -3 -9 -2 -9 3 0 4 -11 21 -25 37 -25 29 -55 36 -89 21 -14 -6 -17 -5
-11 4 6 10 3 11 -13 2 -12 -6 -23 -7 -26 -2 -10 16 -59 -2 -89 -32 -26 -27
-31 -28 -53 -16 -22 11 -26 10 -40 -10 -11 -15 -23 -21 -35 -18 -21 6 -26 -8
-6 -17 6 -3 1 -4 -13 -3 -22 2 -25 -2 -22 -25 3 -22 -1 -28 -15 -27 -10 0 -13
3 -5 6 31 12 6 20 -67 22 -48 1 -82 -3 -86 -9 -5 -8 -11 -7 -21 1 -12 10 -16
9 -20 -7 -3 -12 -15 -20 -32 -21 -138 -7 -223 -16 -228 -24 -3 -5 -17 -6 -31
-3 -17 5 -24 3 -19 -4 4 -7 -8 -10 -39 -9 -25 1 -45 -1 -45 -4 0 -11 -32 -21
-100 -29 -35 -5 -66 -13 -68 -19 -2 -6 -9 -8 -14 -5 -6 4 -16 1 -22 -7 -11
-15 -46 -22 -46 -10 0 4 5 12 12 19 18 18 -32 15 -56 -3 -11 -8 -35 -15 -53
-15 -24 0 -33 -5 -33 -16 0 -13 -3 -14 -14 -5 -11 9 -18 8 -30 -5 -10 -9 -20
-14 -23 -10 -3 3 -11 2 -18 -4 -6 -5 -27 -10 -47 -12 -20 -1 -35 -5 -32 -9 2
-4 -5 -17 -15 -30 -10 -13 -16 -30 -13 -38 3 -10 0 -12 -12 -8 -12 5 -30 -5
-58 -34 -25 -25 -46 -38 -55 -35 -8 4 -28 -3 -44 -15 -16 -11 -37 -22 -45 -23
-8 -1 -23 -9 -33 -18 -10 -9 -43 -19 -72 -22 -30 -4 -58 -12 -64 -20 -5 -7
-26 -16 -45 -19 -19 -4 -47 -13 -62 -21 -32 -17 -145 -46 -201 -51 -109 -11
-162 -21 -145 -29 9 -4 21 -5 25 -3 5 3 24 2 43 -3 39 -9 51 -7 -130 -17 -103
-5 -171 5 -168 25 3 17 -49 30 -140 35 -25 1 -47 9 -52 17 -6 9 -10 10 -10 3
0 -8 -16 -11 -51 -9 -39 3 -57 10 -80 32 -22 21 -29 24 -29 12 0 -15 -3 -15
-31 -1 -24 12 -36 13 -50 5 -14 -9 -24 -4 -58 28 -42 41 -68 55 -37 21 23 -25
12 -49 -12 -28 -10 8 -24 18 -32 22 -13 8 -13 7 -1 -8 19 -24 -2 -21 -24 3
-23 25 -35 25 -35 1 0 -12 8 -21 23 -24 15 -3 13 -4 -8 -4 -17 1 -36 -2 -43
-6 -6 -5 -32 4 -57 18 -25 14 -56 25 -70 25 -13 0 -26 6 -28 13 -3 6 -6 2 -6
-10 -1 -13 4 -23 10 -23 8 0 8 -4 0 -14 -12 -15 -61 -28 -61 -16 0 7 -92 4
-335 -12 -93 -6 -184 -11 -202 -12 -17 -1 -35 -4 -39 -8 -4 -4 -12 -4 -19 2
-16 13 -57 0 -51 -16 4 -10 -1 -11 -20 -4 -33 13 -43 12 -24 -1 12 -8 9 -9
-12 -5 -16 4 -28 3 -28 -2 0 -8 -116 -33 -180 -38 -25 -3 -31 -1 -20 6 8 5 23
10 33 10 10 0 15 5 12 10 -4 6 -15 8 -25 5 -10 -3 -21 -1 -25 5 -4 6 -14 9
-23 5 -8 -3 -19 -1 -22 6 -5 7 -16 2 -34 -15 -22 -23 -23 -28 -9 -33 9 -4 21
1 29 12 12 16 14 16 29 1 19 -18 15 -21 -52 -30 -26 -4 -43 -2 -43 4 0 5 0 13
-1 18 -1 11 -20 32 -30 32 -12 0 -4 -51 10 -60 7 -4 -23 -13 -71 -20 -45 -7
-112 -20 -148 -30 -36 -9 -71 -15 -77 -13 -7 3 -13 0 -13 -7 0 -6 -4 -9 -8 -6
-5 3 -44 -4 -87 -15 -42 -10 -89 -19 -103 -19 -15 0 -44 -6 -67 -14 -22 -8
-89 -24 -150 -36 -60 -12 -120 -27 -132 -33 -13 -6 -26 -8 -29 -4 -4 3 -22 0
-41 -8 -20 -8 -51 -15 -70 -15 -18 0 -49 -7 -69 -15 -38 -16 -68 -10 -60 12 3
8 6 17 6 19 0 3 9 0 19 -6 23 -12 91 15 91 36 0 26 -23 26 -46 0 -27 -29 -35
-31 -50 -16 -6 6 -25 14 -42 19 -26 8 -32 7 -32 -6 0 -12 -5 -11 -20 7 l-20
23 0 -24 c0 -19 -2 -21 -10 -9 -6 9 -10 10 -10 3 0 -11 17 -27 30 -28 29 -4
50 -18 41 -28 -10 -13 -5 -67 30 -310 11 -77 19 -140 17 -142 -7 -7 -36 22
-39 40 -3 11 -9 18 -14 17 -6 -2 -9 -8 -8 -12 1 -4 -12 -8 -30 -8 -31 0 -34 4
-46 44 -9 30 -19 44 -30 43 -9 0 -11 -3 -6 -5 6 -2 9 -20 7 -40 l-4 -36 -67 6
c-36 4 -79 10 -96 13 l-30 6 25 9 c14 5 20 12 14 16 -6 4 -13 15 -17 25 -3 9
-13 17 -22 17 -8 0 -15 7 -15 16 0 8 -4 13 -9 10 -5 -3 -16 10 -25 29 -18 36
-36 54 -36 34 0 -7 -8 -4 -18 7 -9 10 -28 25 -40 32 -31 17 -54 0 -46 -33 3
-13 1 -26 -4 -29 -7 -4 -7 -18 0 -42 7 -27 7 -39 -2 -44 -15 -9 -31 -78 -19
-86 5 -3 9 2 9 10 0 16 20 23 20 9 2 -52 16 -120 26 -131 17 -17 17 -25 2 -40
-8 -8 -8 -12 -1 -12 13 0 24 -65 24 -154 1 -37 4 -80 9 -96 6 -21 5 -30 -6
-34 -22 -9 -17 -28 6 -21 12 4 20 2 20 -5 0 -6 -5 -8 -12 -4 -8 5 -9 2 -5 -10
4 -10 7 -20 7 -22 0 -2 9 -4 20 -4 17 0 18 4 10 25 -5 14 -7 31 -4 38 3 8 1
32 -5 55 -5 23 -5 44 -1 47 5 3 9 43 9 89 1 94 8 174 22 227 l9 35 56 -6 c30
-3 59 -12 64 -20 4 -7 17 -11 29 -7 12 3 21 1 21 -3 0 -5 8 -9 18 -9 31 1 56
-8 60 -19 2 -7 11 -12 19 -12 31 0 93 -24 93 -35 0 -19 51 -29 61 -13 6 10 11
9 22 -6 9 -12 20 -17 31 -13 18 7 46 -13 46 -32 0 -6 18 -11 40 -11 22 0 40
-4 40 -10 0 -5 9 -10 19 -10 10 0 21 -7 25 -15 3 -8 13 -15 21 -15 10 0 13 5
9 11 -4 7 -1 10 7 7 8 -3 18 -18 24 -34 5 -16 12 -31 15 -34 3 -3 40 -108 82
-235 80 -241 116 -342 142 -397 8 -18 25 -58 38 -88 65 -154 141 -255 251
-332 95 -68 191 -103 367 -136 47 -9 86 -19 88 -23 2 -5 10 -5 19 -2 20 8 156
-18 165 -31 9 -14 109 -36 101 -23 -4 6 5 7 23 3 43 -10 84 -13 84 -7 0 10 75
7 82 -3 3 -5 18 -5 35 2 50 20 103 26 103 11 0 -9 4 -8 13 3 13 17 52 34 42
19 -3 -5 14 -8 37 -6 24 2 42 8 41 14 -2 6 4 8 13 4 9 -3 20 0 25 8 8 12 10
12 18 -1 9 -12 11 -12 17 3 5 14 15 17 51 13 32 -3 46 0 50 11 3 8 12 12 19 9
8 -3 14 -2 14 3 0 12 76 30 100 24 11 -3 20 0 20 6 0 6 7 11 15 11 8 0 15 4
15 9 0 12 49 20 56 10 7 -12 44 -11 44 0 0 6 12 6 28 2 15 -4 33 -6 40 -3 7 2
20 -4 28 -14 11 -14 17 -15 20 -6 3 6 10 9 15 6 6 -3 18 1 28 10 10 9 25 14
35 10 9 -3 16 -2 16 4 0 16 33 24 42 10 7 -10 11 -9 22 5 11 14 15 15 20 5 3
-7 4 -3 2 10 -3 15 1 22 12 22 8 0 13 3 9 6 -7 7 40 74 60 87 7 4 13 19 13 33
0 14 6 32 13 39 30 34 37 45 37 56 0 23 24 79 33 79 5 0 4 7 -3 15 -7 8 -8 15
-2 15 12 0 28 39 43 113 7 31 15 57 19 57 8 0 55 102 50 109 -1 2 2 7 7 10 5
3 14 22 20 41 15 46 56 144 64 150 4 3 10 21 14 40 4 19 11 40 15 45 4 6 25
62 46 125 21 63 46 127 56 142 10 14 16 33 12 41 -3 8 2 17 10 20 9 4 16 15
16 26 0 13 5 18 14 15 9 -3 18 6 25 26 6 17 15 29 20 26 5 -3 7 4 4 16 -4 18
-3 20 6 8 9 -13 12 -13 23 3 8 10 22 19 32 21 9 1 21 8 25 14 10 17 89 17 131
-1 8 -3 24 -7 35 -10 11 -2 19 -9 17 -16 -1 -6 3 -11 11 -9 7 2 19 -3 27 -9 8
-7 30 -24 48 -39 17 -14 32 -34 32 -45 0 -10 7 -19 15 -19 8 0 15 -5 15 -12 0
-6 10 -25 23 -42 12 -17 31 -48 41 -68 11 -21 23 -38 27 -38 4 0 10 -13 14
-30 4 -16 11 -30 16 -30 5 0 9 -7 9 -15 0 -8 4 -15 8 -15 5 0 17 -19 27 -42
10 -24 27 -51 37 -62 10 -11 18 -26 18 -33 0 -7 8 -22 18 -32 29 -33 42 -50
42 -57 0 -3 23 -38 50 -77 28 -39 50 -79 50 -89 0 -10 5 -18 10 -18 6 0 10 -6
10 -14 0 -7 9 -25 20 -38 10 -14 17 -28 14 -31 -4 -3 -1 -21 5 -38 9 -25 8
-34 -1 -41 -10 -6 -9 -8 2 -8 18 -1 76 -57 67 -66 -9 -9 21 -36 33 -29 5 3 10
-1 10 -10 0 -9 6 -15 13 -13 16 3 60 -21 70 -38 4 -8 15 -14 22 -14 8 0 15 -5
15 -12 0 -6 3 -8 6 -5 4 3 16 0 28 -8 11 -8 32 -15 46 -15 15 0 20 3 13 8 -22
14 -3 48 36 65 56 25 99 31 116 17 8 -6 20 -8 27 -4 16 10 65 6 89 -7 15 -7
19 -6 19 5 0 8 5 16 12 18 19 7 58 -3 52 -13 -8 -14 53 -4 71 11 9 7 15 9 14
4 -4 -23 2 -26 15 -9 11 15 25 19 60 17 34 -1 46 2 46 13 0 7 8 14 18 14 46 1
196 32 224 45 17 9 41 16 53 16 11 0 25 4 30 8 6 5 44 19 85 32 41 13 90 32
108 42 18 10 37 16 43 13 5 -4 9 -2 9 4 0 6 12 14 28 17 63 16 240 123 302
184 161 157 227 299 305 660 23 107 34 170 55 310 5 30 13 87 20 125 6 39 15
99 19 135 18 139 53 213 121 257 88 56 81 37 76 201 -5 217 -11 243 -60 258
-20 6 -33 7 -30 2 3 -5 -7 -6 -22 -2 -32 8 -254 12 -254 4 0 -3 -32 -6 -70 -8
-57 -2 -70 1 -70 13 0 8 7 15 16 15 8 0 12 -4 9 -10 -8 -13 2 -12 50 4 22 8
54 13 72 11 34 -3 42 5 21 23 -17 13 -141 49 -193 56 -22 3 -84 14 -138 24
-79 15 -99 16 -105 6z m686 -307 c6 -5 12 -15 12 -23 0 -24 -57 -73 -94 -80
-20 -3 -39 -10 -42 -15 -8 -14 -68 -11 -88 4 -21 15 -13 65 13 75 9 3 19 10
22 15 8 11 106 36 139 34 14 -1 31 -5 38 -10z m-513 -209 c-22 -13 -18 -31 5
-25 16 4 27 -4 45 -34 14 -21 25 -43 25 -48 0 -6 7 -8 16 -4 14 5 15 1 9 -28
-4 -19 -11 -35 -16 -37 -5 -2 -9 -9 -9 -14 0 -6 3 -8 6 -5 13 13 44 -14 44
-39 0 -14 -4 -23 -8 -20 -5 3 -9 -1 -9 -8 0 -8 8 -11 19 -8 15 4 18 -2 18 -41
0 -25 -4 -57 -10 -71 -7 -20 -6 -24 6 -19 13 5 14 -18 10 -178 -2 -101 -11
-233 -20 -294 -9 -60 -18 -126 -21 -145 -2 -19 -8 -51 -13 -70 -6 -25 -4 -41
6 -58 13 -20 13 -25 -3 -41 -9 -11 -16 -30 -14 -43 1 -13 -3 -34 -8 -48 -6
-14 -8 -29 -5 -35 3 -5 2 -7 -3 -3 -9 9 -34 -21 -35 -41 0 -8 8 -3 20 10 l19
24 1 -23 c0 -12 -6 -32 -12 -44 -16 -28 -140 -158 -150 -158 -17 0 -7 21 15
31 19 9 50 49 66 84 2 6 -21 -16 -51 -47 -31 -32 -61 -58 -67 -58 -6 0 -14 -6
-17 -14 -3 -8 -17 -17 -32 -21 -15 -4 -35 -13 -44 -22 -9 -8 -32 -22 -50 -32
-18 -9 -32 -21 -31 -27 1 -6 -8 -9 -21 -7 -16 3 -28 -2 -38 -15 -7 -11 -20
-20 -28 -20 -35 2 -50 -3 -50 -16 0 -8 -5 -18 -12 -22 -8 -5 -9 -2 -5 9 7 18
-1 21 -27 11 -8 -3 -12 -12 -9 -20 6 -15 -12 -20 -21 -5 -4 5 -16 4 -30 -2
-13 -7 -22 -15 -20 -19 2 -3 -1 -10 -7 -14 -8 -4 -9 -3 -5 4 4 7 1 12 -8 12
-9 0 -16 -8 -16 -17 0 -12 -3 -14 -10 -7 -7 7 -29 8 -57 4 -25 -4 -54 -5 -64
-3 -9 3 -26 0 -37 -6 -11 -6 -43 -11 -70 -12 -34 -2 -53 -7 -57 -17 -4 -10 -9
-11 -18 -3 -10 8 -17 7 -26 -2 -9 -9 -14 -9 -19 0 -4 7 -43 11 -107 11 -121 0
-199 9 -204 23 -2 7 -7 6 -12 -2 -6 -10 -9 -11 -9 -1 0 6 -9 12 -20 12 -12 0
-32 7 -45 16 -13 9 -28 13 -33 10 -5 -3 -17 3 -27 14 -11 12 -25 18 -36 15
-11 -4 -27 4 -43 22 -21 22 -23 29 -11 31 8 2 15 9 15 15 0 8 4 7 12 -1 7 -7
22 -12 35 -12 13 0 23 -4 23 -10 0 -5 8 -10 18 -11 14 0 14 -2 -3 -9 -18 -7
-18 -8 -2 -14 49 -17 50 -17 37 -1 -16 20 4 20 24 0 8 -8 18 -15 23 -15 4 1
-5 11 -21 24 l-29 24 39 -5 c34 -5 37 -4 25 11 -7 9 -19 16 -26 16 -6 0 -12 7
-12 15 0 8 5 15 10 15 5 0 4 7 -4 16 -11 14 -10 15 7 12 13 -2 19 3 19 17 0
11 11 25 25 32 22 11 21 18 -2 14 -5 0 -8 3 -8 9 0 5 8 9 18 8 38 -3 52 3 52
21 0 47 29 59 68 28 8 -7 12 -5 12 6 0 9 -5 19 -11 23 -8 4 -6 10 6 17 12 6
20 6 24 -2 4 -7 16 -2 33 14 16 15 33 22 42 19 9 -3 16 -2 16 2 0 5 11 10 25
10 14 1 22 -2 19 -7 -3 -5 -1 -9 4 -9 5 0 15 12 22 26 12 22 19 25 48 19 24
-4 39 -2 52 10 11 10 20 12 24 6 4 -6 17 -4 34 5 16 7 45 15 64 16 20 2 34 6
32 9 -2 3 24 14 56 25 33 10 60 22 60 26 0 4 7 5 15 2 10 -4 15 0 16 12 1 14
3 13 9 -6 4 -14 8 -19 9 -12 1 16 26 42 40 42 5 0 17 10 25 22 9 12 16 17 16
11 0 -7 14 1 30 17 17 16 30 34 30 40 0 6 4 9 9 5 6 -3 15 4 21 15 6 11 15 18
21 15 5 -4 9 -2 9 4 0 6 11 13 25 17 24 6 35 24 15 24 -5 0 -10 5 -10 11 0 6
9 9 20 6 11 -3 20 -1 20 4 0 5 9 9 21 9 12 0 23 8 26 20 6 24 16 25 33 5 18
-22 27 -18 34 15 3 18 12 30 21 30 8 0 15 5 15 10 0 6 6 10 14 10 21 0 30 19
16 35 -9 10 -7 14 6 17 17 3 17 4 1 20 -17 16 -15 18 23 28 22 6 40 13 40 17
0 3 -9 3 -20 0 -24 -6 -26 8 -3 22 14 8 17 26 18 123 0 62 -3 116 -8 119 -4 3
-9 34 -12 70 -10 125 -14 154 -27 191 -20 52 -17 103 6 102 16 -2 16 0 2 15
-16 18 -22 71 -8 71 4 1 20 11 36 24 27 23 28 24 11 49 -13 21 -14 29 -3 46
11 19 14 19 31 4 16 -15 16 -18 2 -25z m-3926 -313 c18 -19 17 -50 -1 -49 -12
1 -18 -5 -18 -18 0 -14 -5 -18 -15 -14 -9 3 -15 0 -15 -10 0 -11 -6 -14 -16
-10 -9 3 -33 9 -55 12 -21 4 -39 12 -39 18 0 7 -3 6 -9 -2 -5 -9 -29 -12 -82
-10 -70 3 -74 4 -72 25 2 14 -5 27 -17 33 -25 13 -16 33 11 25 10 -4 26 -2 36
3 22 13 279 10 292 -3z m-734 -57 c4 -3 1 -16 -5 -28 -6 -11 -13 -39 -16 -62
-3 -23 -11 -50 -18 -60 -13 -18 -15 -18 -30 -3 -13 13 -20 14 -31 5 -8 -6 -18
-9 -24 -6 -5 4 -21 1 -34 -5 -21 -10 -37 -6 -106 27 -45 21 -81 44 -81 51 0 8
4 12 9 8 6 -3 14 2 19 11 6 10 16 15 26 11 9 -4 16 -3 16 2 0 9 44 20 142 35
20 3 46 10 58 14 25 9 66 10 75 0z m-1040 -244 c28 -5 53 -7 57 -6 3 1 12 -5
18 -13 10 -12 9 -15 -4 -15 -12 0 -15 -6 -10 -24 7 -29 -15 -44 -61 -41 -16 0
-63 2 -102 3 -69 2 -73 3 -79 28 -4 16 -2 31 7 40 18 18 90 43 109 39 8 -2 38
-7 65 -11z m409 -1137 c3 4 6 -1 6 -9 0 -9 -6 -18 -12 -21 -7 -2 -9 -8 -5 -13
5 -5 15 -1 23 10 14 19 14 19 14 -2 0 -13 6 -22 15 -22 8 0 15 -4 15 -9 0 -5
8 -11 17 -13 10 -2 18 -12 18 -23 0 -11 6 -19 13 -17 6 1 12 -3 12 -9 0 -6 7
-9 15 -6 8 4 17 2 20 -3 4 -6 -3 -10 -14 -10 -22 0 -28 -14 -11 -25 6 -3 10
-1 10 4 0 6 11 11 25 11 14 0 25 -4 25 -9 0 -5 -10 -7 -22 -5 -21 4 -22 4 -3
-5 29 -14 35 -13 35 4 0 8 5 15 11 15 10 0 9 -8 -4 -61 -1 -4 3 -7 8 -7 6 0 9
4 8 9 -2 5 4 9 12 9 8 0 14 -3 14 -7 -4 -22 2 -43 10 -39 5 3 11 -1 14 -8 3
-8 1 -17 -6 -20 -7 -3 -2 -3 10 0 20 5 21 2 18 -36 -4 -48 1 -52 14 -7 7 24 9
26 10 10 1 -16 6 -21 21 -18 12 2 29 -4 40 -15 15 -15 19 -16 24 -4 3 8 -1 14
-9 14 -8 0 -15 7 -15 15 0 9 -6 12 -15 9 -8 -4 -15 -1 -15 5 0 6 3 11 8 11 4
0 17 3 30 6 17 5 21 3 16 -9 -3 -8 -1 -18 5 -22 6 -3 14 1 17 9 8 20 38 21 54
1 11 -13 15 -13 22 -3 6 8 7 3 3 -16 -5 -26 -5 -27 10 -12 9 9 23 16 32 16 11
0 13 7 8 33 -5 27 -4 30 7 16 13 -15 58 -21 58 -7 0 4 -4 8 -10 8 -5 0 -10 4
-10 10 0 5 7 7 15 4 9 -4 15 0 15 10 0 13 11 16 58 16 33 0 52 4 44 8 -9 6 -5
12 15 21 21 10 28 10 31 1 3 -9 7 -9 13 1 8 12 11 11 19 -1 8 -12 10 -11 10 7
0 22 3 23 59 18 49 -5 61 -3 69 11 6 10 16 15 25 11 9 -3 19 -2 22 3 3 5 19 7
35 3 22 -4 31 -1 36 11 4 11 18 16 43 16 20 0 42 5 47 10 8 8 19 7 37 -1 20
-9 33 -9 57 1 24 10 33 10 45 0 9 -7 18 -10 22 -6 3 3 0 6 -7 6 -10 0 -11 3
-3 11 13 13 36 3 28 -12 -4 -5 -1 -9 4 -9 6 0 11 5 11 11 0 11 13 10 100 -5
13 -2 34 1 46 6 16 8 28 6 46 -6 14 -9 32 -14 41 -10 24 9 87 -15 113 -43 13
-14 28 -22 33 -18 6 3 11 1 11 -5 0 -6 -7 -13 -15 -16 -23 -9 5 -32 53 -43 39
-8 41 -8 47 19 4 18 14 30 28 33 12 2 30 8 41 12 16 7 17 6 6 -14 -8 -15 -18
-21 -30 -18 -13 3 -17 0 -13 -9 8 -21 20 -17 60 21 58 55 51 32 -8 -27 -49
-49 -180 -148 -195 -148 -4 0 -30 -11 -58 -24 -52 -24 -132 -56 -142 -56 -3 0
-2 5 1 10 3 6 -1 10 -9 10 -9 0 -13 -6 -10 -14 5 -13 -15 -25 -53 -32 -6 -1
-27 -6 -45 -12 -18 -5 -60 -15 -93 -22 -33 -6 -77 -15 -98 -20 -21 -4 -65 -7
-97 -7 -32 1 -56 -1 -53 -5 2 -5 -17 -8 -44 -9 -26 0 -79 -3 -118 -5 -73 -6
-83 4 -18 16 37 7 36 8 -14 9 -38 1 -52 -3 -50 -11 2 -15 -61 -18 -143 -8
-166 23 -232 34 -237 43 -4 6 3 8 15 5 12 -4 25 -2 28 3 3 5 -5 9 -16 9 -12 0
-36 6 -53 14 -18 8 -50 20 -72 27 -22 6 -51 20 -65 29 -14 9 -31 15 -37 13 -7
-3 -13 2 -13 11 0 9 -4 16 -10 16 -5 0 -10 9 -10 19 0 20 -25 35 -42 24 -6 -3
-8 -2 -5 4 3 5 -2 17 -11 26 -26 24 -42 45 -42 55 0 5 -11 19 -25 32 -13 12
-23 25 -23 29 1 3 -8 28 -20 55 -12 27 -22 51 -22 54 0 3 -9 24 -19 46 -11 23
-22 52 -26 66 l-6 25 19 -22 c11 -12 22 -19 26 -16z"/>
<path d="M4808 19403 c-12 -13 -25 -23 -29 -23 -12 0 -69 -54 -69 -66 0 -12
-28 -29 -42 -26 -13 3 -4 -87 9 -92 7 -3 15 -1 18 3 3 5 33 12 67 16 35 4 81
14 103 22 22 8 63 17 90 19 79 7 100 10 111 17 38 23 103 36 135 27 44 -13 48
-12 25 5 -19 14 -19 15 -2 15 28 0 5 23 -39 39 -33 12 -38 11 -54 -8 -19 -21
-37 -29 -26 -11 6 9 -8 15 -29 11 -16 -3 -64 20 -70 34 -7 20 -68 47 -80 35
-5 -5 -21 -10 -34 -10 -22 0 -23 -2 -11 -17 13 -16 12 -17 -3 -5 -13 10 -17
10 -21 0 -4 -9 -6 -9 -6 -1 -1 6 4 15 9 18 17 11 11 24 -10 22 -11 -1 -30 -12
-42 -24z"/>
<path d="M3073 18730 c-3 -11 -9 -17 -14 -14 -5 3 -19 -4 -31 -15 -12 -12 -26
-21 -31 -21 -5 0 -6 -12 -3 -27 8 -36 -10 -135 -27 -145 -9 -6 -9 -8 1 -8 8 0
12 -13 12 -32 0 -18 2 -53 5 -78 3 -25 7 -65 8 -90 6 -84 30 -202 38 -189 4 7
5 34 2 60 -3 26 -2 56 2 66 5 10 7 24 6 31 -1 6 5 12 14 12 8 0 15 6 15 13 1
6 7 -1 15 -18 l13 -30 1 29 c1 16 8 38 18 48 13 15 14 23 5 43 -10 21 -9 25 4
25 12 0 15 6 10 24 -6 26 11 76 26 76 4 0 8 5 8 10 0 6 9 19 20 30 12 12 18
25 15 30 -4 6 1 10 9 10 10 0 13 6 10 15 -4 10 3 18 23 25 28 10 63 50 44 50
-6 0 -22 11 -37 25 -15 14 -32 26 -38 27 -26 3 -33 5 -70 21 -50 22 -67 21
-73 -3z"/>
<path d="M3563 18276 c-13 -7 -31 -20 -41 -29 -10 -10 -23 -17 -29 -17 -17 0
-36 -27 -24 -34 6 -4 8 -13 4 -21 -3 -8 0 -15 7 -15 7 0 9 -8 5 -21 -5 -15 -2
-22 14 -26 12 -3 21 -12 21 -20 0 -8 4 -12 10 -8 5 3 7 12 4 20 -4 9 1 14 13
14 65 1 78 6 81 31 2 14 8 30 13 37 17 19 -27 106 -51 102 -3 -1 -15 -7 -27
-13z"/>
<path d="M8405 16982 c-43 -21 -86 -64 -80 -80 2 -7 1 -10 -5 -7 -8 5 -30 -24
-30 -42 0 -4 11 -9 25 -9 18 -1 25 3 25 16 0 13 6 17 19 13 12 -3 17 -11 14
-19 -3 -10 3 -14 20 -14 14 0 27 3 29 8 2 4 17 15 33 24 17 10 29 22 28 27 -2
10 57 41 78 41 7 0 9 3 6 7 -4 3 1 12 11 20 15 13 15 14 0 9 -9 -3 -18 0 -20
6 -6 17 -118 17 -153 0z"/>
<path d="M3875 16920 c4 -14 9 -41 11 -60 2 -19 13 -47 24 -62 11 -15 20 -32
20 -38 0 -5 10 -10 23 -11 12 0 16 -3 10 -6 -7 -2 -13 -12 -13 -21 -1 -14 -5
-12 -20 7 -11 13 -20 29 -20 37 0 8 -4 14 -10 14 -5 0 -9 -18 -7 -39 1 -21 6
-37 11 -34 4 3 5 -5 1 -18 -4 -13 -11 -25 -15 -27 -3 -1 -4 -16 -2 -32 4 -25
1 -30 -16 -30 -12 0 -24 -4 -27 -10 -3 -5 -17 -10 -31 -10 -13 0 -24 -4 -24
-9 0 -14 16 -22 24 -13 4 4 17 8 29 8 12 1 41 5 65 9 35 6 42 5 42 -8 0 -13 7
-15 28 -11 19 4 32 1 41 -10 29 -35 41 12 17 67 -8 18 -17 40 -20 50 -3 10
-10 15 -16 12 -6 -4 -7 -11 -4 -17 4 -6 1 -9 -7 -6 -14 5 -15 15 -5 72 4 22 0
34 -15 44 -10 7 -19 22 -19 32 0 10 -4 22 -10 25 -5 3 -10 14 -10 23 0 9 -15
35 -32 57 -24 32 -29 35 -23 15z"/>
<path d="M7365 16865 c-33 -8 -66 -14 -73 -14 -7 -1 -11 -5 -8 -10 4 -5 -3 -7
-14 -4 -14 4 -34 -5 -58 -24 -20 -16 -54 -35 -74 -42 -21 -7 -38 -19 -38 -27
0 -8 -6 -14 -14 -14 -10 0 -12 -7 -9 -22 5 -23 5 -23 -11 -3 -10 11 -15 15
-12 9 3 -7 -1 -14 -9 -18 -8 -3 -15 -10 -15 -16 0 -6 5 -8 10 -5 6 3 10 0 10
-8 0 -13 32 -25 106 -40 12 -2 29 0 38 5 10 6 16 5 16 -2 0 -13 53 -13 67 1 5
5 26 11 44 11 40 0 99 25 99 42 0 6 5 3 11 -6 9 -16 13 -17 39 -3 16 8 38 15
50 15 11 0 20 4 20 9 0 20 30 18 52 -3 18 -19 34 -24 80 -24 63 0 82 -7 74
-28 -3 -8 0 -11 8 -8 7 3 18 -7 24 -21 6 -14 20 -25 30 -25 10 0 24 -11 30
-24 9 -20 17 -24 44 -21 18 1 41 6 50 10 13 5 15 2 11 -14 -4 -16 -2 -20 10
-15 8 3 18 1 22 -5 9 -15 45 -14 40 2 -5 12 37 37 63 37 7 0 11 6 8 13 -3 6
-9 20 -12 30 -4 9 -14 17 -23 18 -10 0 -11 2 -3 6 14 6 17 53 2 53 -5 0 -10
-5 -10 -12 0 -9 -3 -9 -11 -1 -6 6 -18 9 -27 6 -10 -4 -13 -2 -8 5 4 7 1 12
-8 12 -8 0 -18 -5 -22 -11 -9 -15 -114 -4 -125 13 -7 10 -9 10 -9 -2 0 -9 -9
-16 -22 -17 -13 0 -17 1 -10 4 15 6 16 23 0 23 -6 0 -28 17 -49 38 -55 53 -58
55 -121 85 -31 15 -59 31 -63 37 -3 5 -12 7 -20 3 -8 -3 -15 -1 -15 3 0 15
-101 14 -165 -1z"/>
<path d="M3962 16531 c-8 -5 -9 -16 -3 -39 5 -18 7 -32 3 -32 -4 0 -1 -4 7 -9
7 -5 15 -26 17 -47 12 -125 13 -153 5 -158 -8 -5 -15 27 -27 119 -3 22 -7 41
-8 42 -4 4 -63 -15 -102 -33 -17 -7 -67 -18 -110 -24 -225 -30 -247 -37 -369
-115 -27 -17 -62 -39 -76 -47 -14 -9 -68 -31 -120 -48 -52 -18 -98 -36 -104
-40 -5 -4 -40 -17 -77 -30 -38 -13 -68 -27 -68 -32 0 -4 -7 -8 -15 -8 -8 0
-40 -12 -72 -26 -125 -56 -151 -68 -230 -105 -44 -22 -85 -39 -89 -39 -10 0
-445 -219 -461 -232 -7 -6 -49 -28 -94 -50 -44 -21 -99 -50 -120 -64 -43 -27
-63 -38 -179 -104 -41 -23 -91 -52 -110 -65 -19 -13 -54 -33 -76 -46 -23 -13
-69 -43 -102 -66 -34 -24 -63 -43 -66 -43 -7 0 -294 -187 -366 -238 -59 -42
-260 -142 -285 -142 -8 0 -15 -5 -15 -12 0 -6 -3 -9 -6 -5 -8 8 -446 -219
-452 -234 -2 -5 -7 -9 -12 -9 -11 0 -152 -81 -168 -97 -18 -17 -17 -1099 1
-1106 9 -4 9 -6 -1 -6 -9 -1 -12 -310 -12 -1516 l1 -1515 35 0 c21 0 33 4 29
10 -4 6 1 7 11 3 13 -5 16 -2 12 9 -4 9 0 15 8 15 8 0 14 -4 14 -8 0 -5 7 -6
15 -2 9 3 15 2 14 -3 0 -5 2 -19 6 -31 6 -19 10 -21 27 -12 18 10 18 8 -3 -21
-20 -26 -24 -28 -29 -14 -4 12 -9 14 -13 7 -4 -7 -3 -14 3 -18 17 -11 12 -55
-7 -55 -12 0 -14 -3 -6 -11 14 -14 5 -49 -13 -49 -17 0 -18 12 -1 29 10 10 9
11 -5 6 -10 -4 -18 -14 -18 -22 0 -17 -22 -13 -28 6 -2 7 5 15 17 18 21 5 30
23 11 23 -5 0 -7 7 -4 15 5 11 2 13 -10 9 -9 -3 -16 -17 -16 -29 0 -26 -21
-46 -28 -27 -2 7 -8 12 -13 12 -5 0 -9 -36 -9 -80 0 -79 0 -80 26 -80 14 0 23
-4 19 -10 -3 -5 -15 -10 -26 -10 -14 0 -19 -7 -19 -30 0 -17 5 -30 13 -30 9 0
9 -2 -1 -9 -19 -12 -13 -628 6 -640 11 -7 11 -11 -1 -23 -10 -10 -15 -42 -16
-116 -1 -56 2 -102 6 -102 4 0 9 -17 10 -38 1 -28 0 -32 -7 -17 -5 11 -9
-1936 -9 -4482 l-1 -4503 5094 0 c4066 0 5095 3 5099 13 4 9 6 9 6 0 2 -30 71
-4 71 26 0 6 5 11 10 11 13 0 13 -6 0 -31 -13 -24 -2 -25 16 -1 13 16 13 16
15 -3 1 -17 2 -16 9 5 l8 25 7 -23 c7 -20 13 -22 91 -22 66 0 84 3 84 14 0 8
-6 17 -12 19 -10 4 -10 6 0 6 8 1 16 -8 19 -19 5 -19 14 -20 179 -20 l174 0 0
25 c0 14 6 25 13 25 7 0 13 9 14 20 1 11 -2 20 -8 20 -5 0 -9 9 -9 20 0 11 5
20 12 20 6 0 9 3 5 6 -3 3 -12 2 -19 -2 -20 -13 -48 -15 -48 -4 0 6 -7 10 -16
10 -14 0 -14 3 -4 15 7 9 19 14 27 11 16 -6 18 10 2 20 -6 3 -15 1 -19 -6 -8
-13 -42 -9 -69 9 -19 13 -18 87 3 109 9 10 16 21 16 24 0 11 -38 47 -44 41 -3
-3 -6 5 -6 18 0 19 -2 21 -10 9 -8 -13 -10 -12 -10 3 0 9 -4 17 -10 17 -5 0
-10 14 -10 31 0 24 -6 32 -30 40 -32 12 -31 5 -15 116 4 25 -15 106 -23 98 -7
-7 -33 16 -27 25 3 4 -9 14 -26 23 -19 8 -27 17 -20 21 6 4 11 13 11 19 0 8
-4 7 -9 -2 -8 -12 -16 -10 -45 12 -19 15 -39 27 -44 27 -6 0 -12 7 -16 15 -3
8 -13 15 -21 15 -10 0 -13 5 -9 12 4 6 3 8 -4 4 -6 -3 -18 4 -26 16 -9 12 -19
19 -22 15 -10 -9 -35 13 -28 24 3 5 0 9 -6 9 -7 0 -26 10 -43 22 -18 13 -39
22 -47 20 -12 -2 -13 -1 -1 7 8 5 12 19 9 35 -3 14 -1 26 3 26 5 0 9 5 9 10 0
6 -7 10 -15 10 -8 0 -15 -7 -15 -16 0 -9 -6 -14 -12 -11 -7 2 -21 -3 -31 -11
-16 -14 -19 -14 -32 4 -11 15 -15 16 -16 4 -1 -8 -4 -2 -8 14 -6 28 -7 28 -23
13 -15 -15 -17 -15 -32 9 -9 13 -22 22 -28 18 -7 -4 -6 -10 3 -16 11 -8 11 -9
-1 -5 -8 2 -15 14 -14 26 0 11 -3 21 -8 21 -4 0 -8 7 -8 15 0 8 4 15 9 15 6 0
10 8 11 17 7 122 12 145 31 140 10 -3 21 -1 24 4 3 4 -6 11 -20 15 -22 6 -24
10 -20 45 3 21 1 48 -4 61 -4 13 -5 35 0 50 6 22 4 28 -9 28 -13 0 -13 2 3 13
10 8 15 19 11 26 -4 6 0 18 8 27 9 9 16 11 16 4 0 -6 5 -8 10 -5 13 8 9 35 -6
52 -14 15 -10 86 5 91 15 5 14 35 -1 50 -8 8 -8 12 -1 12 6 0 9 13 7 30 -2 17
1 30 6 30 5 0 9 12 9 27 -1 32 5 74 12 88 3 6 4 35 3 65 -1 30 -3 106 -5 168
-1 65 -6 112 -12 112 -5 0 -5 5 2 13 6 8 9 16 6 18 -16 16 -27 442 -11 432 5
-4 6 10 1 33 -5 21 -10 53 -12 69 -1 17 -6 42 -9 57 -9 38 3 78 22 78 14 0 14
2 3 16 -12 15 -11 16 10 9 17 -5 22 -4 19 6 -3 8 8 26 23 40 26 23 109 142
109 155 0 3 -4 2 -10 -1 -6 -3 -10 -1 -10 4 0 6 6 11 13 11 13 0 47 90 47 123
0 10 4 17 10 17 10 0 45 60 42 72 -1 5 4 8 12 8 18 0 49 47 40 61 -3 6 -13 8
-21 5 -11 -5 -14 1 -11 22 2 22 -1 26 -16 24 -13 -2 -17 1 -13 11 4 10 -1 13
-18 11 -13 -1 -30 5 -37 14 -11 13 -10 15 4 10 23 -9 30 2 12 20 -14 13 -17
13 -25 1 -7 -11 -9 -9 -9 7 0 29 30 41 37 14 3 -11 9 -20 13 -20 5 0 6 9 3 20
-5 18 -15 24 -35 21 -4 0 -5 6 -2 14 4 9 0 15 -10 15 -9 0 -16 4 -16 8 0 5 -9
18 -20 30 -12 12 -16 23 -10 27 6 3 10 1 10 -4 0 -6 5 -11 11 -11 5 0 7 4 4
10 -4 6 3 9 16 7 12 -1 24 4 26 11 3 7 -1 10 -11 6 -9 -3 -16 -1 -16 5 0 6 5
11 10 11 18 0 11 20 -7 21 -10 0 -1 6 19 12 28 9 35 15 29 26 -5 7 -13 11 -19
7 -18 -11 -24 13 -8 29 13 14 16 13 26 -2 10 -15 11 -14 7 10 -3 21 -1 25 8
17 9 -8 15 -8 20 0 3 5 -1 13 -9 16 -22 8 -20 32 1 30 12 -1 18 7 19 21 1 12
-2 20 -7 18 -4 -3 -10 -1 -14 5 -3 5 -1 10 4 10 15 0 14 27 -1 33 -8 3 -6 6 5
6 15 1 22 -10 18 -31 0 -5 3 -8 9 -8 5 0 10 9 10 19 0 14 6 18 23 15 12 -2 15
-1 7 2 -8 4 -21 12 -29 18 -8 6 -24 11 -35 11 -13 0 -20 6 -18 14 2 8 -3 18
-10 22 -10 7 -9 9 3 9 9 0 19 -7 23 -15 3 -8 12 -15 21 -15 8 0 15 -4 15 -10
0 -5 9 -1 20 10 26 26 25 33 -2 24 -20 -6 -21 -5 -10 9 9 10 10 17 2 22 -6 3
-8 11 -5 16 4 5 1 9 -6 9 -7 0 -9 3 -5 7 4 4 25 6 47 4 34 -2 40 0 37 15 -1 9
-10 20 -18 22 -13 5 -13 3 -1 -11 12 -15 11 -17 -3 -17 -9 0 -16 5 -16 11 0 7
-9 9 -23 5 -18 -4 -23 -1 -23 14 0 11 6 22 13 24 7 3 10 -1 6 -10 -3 -7 0 -14
5 -14 6 0 14 20 18 45 4 28 11 45 20 45 17 0 18 16 2 26 -6 4 -14 2 -16 -4 -2
-7 -8 -12 -14 -12 -7 0 -6 5 1 14 9 11 9 15 -1 20 -7 3 -3 3 10 0 15 -4 24 0
28 11 9 22 -5 33 -17 15 -9 -12 -10 -12 -5 3 3 9 2 17 -3 17 -14 0 -43 -38
-37 -48 3 -5 0 -15 -8 -21 -11 -9 -15 -7 -20 11 -9 33 -8 36 11 34 10 0 19 7
21 18 3 13 0 16 -10 11 -7 -5 -3 3 10 17 12 13 22 30 22 36 0 7 5 12 11 12 5
0 7 5 4 10 -3 6 -1 10 4 10 18 0 26 -5 23 -13 -1 -5 2 -6 8 -2 6 3 8 18 5 32
-5 29 11 67 25 58 4 -3 10 1 13 7 3 9 8 10 15 3 8 -8 7 -18 -3 -39 -14 -27
-14 -28 5 -23 14 3 20 0 20 -10 0 -13 3 -13 25 1 22 14 25 15 25 1 0 -22 40
-19 41 3 0 14 2 13 11 -5 21 -44 75 -37 64 9 -2 9 11 32 30 52 20 21 34 30 34
22 0 -8 -6 -19 -12 -23 -7 -4 -19 -18 -26 -30 -10 -19 -10 -23 2 -23 8 0 16
-7 20 -15 5 -13 8 -13 25 1 11 9 17 22 15 29 -3 6 2 18 11 25 12 10 15 10 15
-3 0 -9 7 -23 16 -31 14 -14 17 -13 40 11 20 22 28 25 47 16 21 -10 25 -8 34
18 6 16 7 29 2 29 -5 0 -9 5 -9 11 0 5 6 7 13 3 9 -6 9 -4 -1 8 -10 13 -9 17
10 22 42 11 48 7 48 -30 0 -21 4 -33 10 -29 6 4 8 11 5 16 -4 5 -2 9 4 9 6 0
8 7 5 15 -4 8 -1 15 5 15 6 0 14 -13 17 -30 4 -16 10 -28 14 -25 4 2 5 16 2
30 -5 31 25 36 36 6 4 -11 11 -21 17 -23 5 -2 8 -13 7 -25 -3 -17 0 -21 12
-17 9 3 13 10 10 15 -3 5 2 9 10 9 10 0 13 6 9 17 -4 11 -3 14 5 9 7 -4 12
-14 12 -22 0 -8 5 -12 10 -9 6 4 8 11 5 16 -4 5 -2 9 4 9 5 0 12 -6 15 -12 2
-7 4 -2 3 12 -1 16 4 25 16 28 12 2 17 -3 17 -17 0 -12 -4 -21 -9 -21 -5 0 -7
-9 -4 -20 4 -14 14 -20 34 -20 16 0 38 -9 49 -20 16 -16 20 -17 20 -5 0 8 -4
15 -10 15 -5 0 -10 4 -10 10 0 5 5 9 12 7 6 -1 15 9 19 23 4 14 7 20 8 14 1
-7 12 -9 27 -6 16 3 21 7 14 12 -15 10 14 22 34 14 10 -4 14 1 13 14 -1 14 -7
19 -24 17 -12 -1 -20 1 -18 6 3 4 -2 14 -10 22 -17 18 -20 53 -4 62 6 5 4 12
-7 20 -10 7 -15 19 -11 28 4 11 2 14 -9 10 -7 -3 -14 -9 -14 -14 0 -5 -16 -9
-36 -9 -21 0 -33 4 -29 10 3 6 1 10 -5 10 -7 0 -9 8 -4 22 6 19 4 21 -7 12 -8
-7 -22 -8 -34 -3 -19 7 -19 8 3 8 13 1 22 7 22 16 0 8 5 15 11 15 5 0 8 -4 5
-8 -3 -4 8 -7 23 -6 16 1 48 -2 72 -6 27 -5 46 -4 50 2 3 5 9 0 12 -11 5 -22
41 -29 52 -11 4 6 -1 7 -12 3 -16 -6 -16 -5 -4 10 17 21 28 15 36 -23 7 -34
47 -65 42 -33 -1 10 -6 23 -10 30 -4 6 -4 18 -1 27 5 12 2 15 -10 10 -11 -4
-16 -1 -16 10 0 10 9 16 25 16 18 0 23 4 19 15 -8 19 5 19 30 0 11 -8 27 -15
35 -15 14 0 14 1 1 10 -10 6 -11 10 -2 10 6 0 12 7 12 15 0 8 6 15 13 15 8 0
8 3 -2 9 -11 7 -10 12 8 27 34 29 27 52 -16 57 -32 3 -29 4 14 5 44 2 53 -1
58 -19 5 -16 12 -19 28 -14 12 4 31 7 42 6 11 0 23 5 27 12 5 8 8 6 8 -6 0
-24 26 -51 35 -37 4 6 11 8 16 4 5 -3 16 -1 24 6 7 6 41 13 74 15 84 5 99 11
99 40 0 14 -4 28 -9 31 -23 14 -5 22 39 18 26 -3 64 -5 85 -5 28 1 37 -3 37
-17 0 -11 9 -17 25 -18 22 -2 24 0 14 13 -10 12 -10 16 2 23 11 7 15 3 17 -20
4 -37 17 -38 30 -3 6 16 11 21 11 12 1 -11 11 -15 47 -13 25 1 56 5 70 8 24 7
28 1 24 -37 -1 -17 1 -17 29 4 18 13 30 28 27 34 -2 6 5 11 15 11 15 0 16 -3
6 -16 -10 -13 -10 -13 5 -2 10 8 20 22 23 32 3 10 16 20 28 23 12 2 30 8 40
12 13 5 16 3 11 -8 -3 -9 -12 -13 -20 -10 -8 3 -14 0 -14 -6 0 -6 6 -11 14
-11 8 0 17 -6 19 -12 3 -7 8 2 12 20 7 31 25 45 25 20 0 -8 7 -5 15 6 8 11 15
14 15 8 0 -20 20 -13 45 16 l24 27 1 1017 c0 624 -4 1019 -9 1023 -6 3 -6 16
0 33 13 38 7 2787 -6 2786 -5 -1 -53 -5 -105 -9 -52 -3 -108 -8 -125 -10 -16
-2 -70 -7 -120 -10 -49 -3 -110 -8 -135 -10 -25 -3 -83 -7 -130 -10 -47 -3
-152 -10 -235 -15 -82 -6 -186 -13 -230 -15 -157 -9 -310 -27 -316 -37 -4 -6
-8 -5 -11 3 -4 11 -9 12 -26 2 -16 -10 -22 -10 -25 0 -3 9 -8 9 -16 1 -7 -6
-27 -8 -48 -5 -32 5 -37 11 -49 51 -8 25 -14 57 -14 72 0 15 -4 37 -9 50 -5
13 -17 75 -26 138 -9 63 -20 138 -25 165 -5 28 -12 64 -14 80 -3 17 -13 71
-22 120 -19 106 -28 155 -43 250 -6 39 -19 110 -29 158 -16 78 -17 100 -6 185
41 339 56 535 50 692 -6 165 -31 488 -51 670 -19 174 -31 500 -19 500 23 0 48
189 45 350 -3 253 -35 431 -129 710 -36 110 -40 119 -91 240 -17 41 -31 83
-31 93 0 9 -3 17 -8 17 -4 0 -13 15 -20 33 -26 64 -34 77 -107 190 -27 42 -53
77 -57 77 -4 0 -8 5 -8 11 0 6 -6 16 -12 23 -7 8 -33 38 -57 67 -79 95 -187
196 -286 268 -33 24 -65 49 -70 55 -19 21 -106 76 -119 76 -8 0 -16 3 -18 8
-1 4 -33 27 -70 50 -51 33 -72 42 -90 37 -13 -4 -20 -4 -16 0 13 14 -13 35
-43 35 -20 0 -29 5 -29 16 0 12 -6 15 -21 11 -13 -3 -26 1 -36 13 -9 11 -23
15 -36 12 -16 -4 -19 -2 -14 11 8 21 3 21 -17 1 -14 -13 -16 -13 -16 0 0 8
-10 18 -22 22 -13 4 -26 11 -29 16 -6 10 -69 -72 -69 -89 0 -4 -11 -21 -25
-37 -14 -16 -25 -35 -25 -43 0 -7 -4 -13 -9 -13 -4 0 -19 -21 -32 -47 -13 -27
-27 -50 -30 -53 -3 -3 -16 -25 -30 -50 -32 -59 -110 -174 -120 -178 -5 -2 -9
-10 -9 -18 0 -7 -9 -19 -20 -26 -11 -7 -20 -18 -20 -25 0 -16 -12 -17 -27 -2
-9 9 -12 7 -10 -8 0 -13 6 -19 14 -16 17 7 17 -14 0 -24 -7 -4 -18 -21 -25
-36 -7 -15 -16 -26 -21 -23 -4 3 -17 -4 -27 -16 -17 -19 -17 -21 -2 -15 15 5
16 4 5 -13 -7 -13 -18 -18 -30 -14 -16 5 -18 1 -16 -24 5 -39 -18 -67 -39 -50
-13 11 -15 10 -10 -10 4 -12 2 -20 -3 -16 -5 3 -10 -3 -11 -13 0 -10 -2 -22
-3 -28 -2 -5 -3 -18 -4 -27 -1 -12 -9 -18 -27 -18 -20 0 -25 -4 -22 -22 3 -21
-1 -23 -36 -21 -22 2 -37 0 -33 -3 3 -3 1 -19 -5 -36 -9 -25 -12 -28 -20 -14
-5 9 -17 16 -27 16 -10 0 -18 7 -18 15 0 8 5 15 10 15 6 0 8 3 4 6 -3 3 -16
-1 -29 -10 -12 -9 -17 -16 -10 -16 7 0 11 -4 7 -10 -3 -5 -12 -7 -20 -3 -15 5
-20 -11 -17 -51 2 -12 -3 -16 -12 -13 -8 3 -13 -1 -12 -11 0 -9 -7 -18 -16
-20 -12 -2 -18 3 -18 16 0 10 -8 26 -18 35 -22 20 -39 23 -24 4 9 -10 2 -13
-29 -14 -23 -1 -47 -7 -55 -14 -8 -6 -14 -8 -14 -4 0 4 -7 2 -15 -5 -12 -10
-16 -9 -21 4 -3 9 -10 16 -15 16 -4 0 -6 -7 -2 -15 15 -41 -71 -51 -87 -11 -8
19 -9 19 -9 -6 -1 -23 -21 -53 -21 -31 0 5 -13 14 -29 20 -27 10 -30 9 -35
-13 -8 -32 -22 -30 -34 4 l-9 27 -7 -32 c-4 -18 -6 -34 -4 -36 9 -8 -29 -33
-45 -29 -13 3 -15 7 -7 12 9 5 9 9 1 14 -6 4 -14 0 -17 -8 -3 -9 -17 -16 -30
-16 -13 0 -24 -4 -24 -9 0 -5 -23 -9 -51 -8 -44 0 -54 -4 -80 -32 -26 -29 -34
-31 -30 -8 2 15 -22 6 -39 -15 l-19 -23 -10 25 c-7 18 -10 20 -10 8 -1 -23
-29 -23 -60 -2 -22 16 -23 16 -12 -4 15 -28 14 -31 -9 -25 -11 3 -20 10 -20
16 0 11 -30 36 -43 37 -5 0 -6 -9 -2 -19 7 -22 -13 -40 -25 -21 -5 9 -12 6
-22 -9 -13 -18 -17 -19 -27 -8 -7 9 -26 13 -52 11 -26 -2 -38 0 -33 7 3 6 -3
5 -14 -2 -11 -7 -18 -19 -15 -26 3 -7 -2 -13 -11 -13 -9 0 -16 4 -16 9 0 6 -9
9 -20 8 -11 -1 -20 -5 -20 -9 0 -4 -10 -12 -21 -19 -12 -6 -19 -7 -16 -2 3 4
-6 13 -19 20 -18 8 -24 8 -24 -1 0 -7 -9 -22 -21 -35 -19 -20 -22 -21 -33 -5
-10 13 -17 14 -34 5 -12 -6 -22 -19 -22 -28 0 -11 -7 -14 -25 -11 -13 3 -22 1
-19 -3 3 -5 0 -9 -5 -9 -6 0 -11 10 -11 23 -1 21 -1 21 -15 3 -8 -11 -21 -16
-30 -13 -8 4 -15 2 -15 -3 0 -6 -4 -10 -10 -10 -5 0 -10 7 -10 15 0 8 -4 15
-10 15 -5 0 -10 6 -10 13 0 17 -36 47 -46 39 -4 -4 -5 1 -1 10 3 10 0 19 -9
22 -23 9 -24 8 -24 -15 0 -11 -4 -18 -10 -14 -5 3 -7 12 -4 19 3 9 -4 15 -20
18 -20 4 -26 1 -26 -13 0 -20 -25 -26 -36 -8 -3 6 -16 -5 -29 -28 l-23 -38 -7
28 -7 27 -24 -22 c-13 -13 -24 -29 -24 -36 0 -7 -5 -10 -10 -7 -6 3 -7 18 -3
33 6 26 6 26 -18 11 -13 -8 -33 -15 -44 -14 -16 0 -19 6 -17 30 l3 30 -18 -25
c-10 -14 -17 -28 -15 -32 1 -5 -3 -8 -8 -8 -6 0 -8 11 -4 25 8 33 -13 33 -27
1 -7 -15 -17 -22 -26 -19 -8 3 -19 0 -24 -8 -6 -10 -9 -6 -9 13 0 25 -3 27
-37 27 -77 -1 -94 2 -82 17 9 11 9 14 0 14 -7 0 -21 9 -32 19 l-21 19 21 12
c12 6 19 16 15 22 -4 6 -9 6 -13 1 -11 -17 -52 -35 -67 -29 -9 3 -14 14 -13
23 3 31 -1 43 -12 43 -6 0 -8 -7 -5 -16 3 -8 -3 -24 -13 -36 -15 -16 -23 -18
-38 -9 -15 8 -15 10 -2 11 9 0 16 7 16 15 0 12 -8 14 -29 11 -19 -3 -31 0 -35
10 -7 18 -28 18 -58 -2 -14 -9 -32 -13 -42 -9 -17 6 -17 7 1 20 17 13 16 14
-10 11 -15 -2 -30 -8 -32 -15 -2 -6 -11 -11 -19 -11 -9 0 -13 6 -9 15 7 20
-11 19 -22 -1 -8 -14 -10 -14 -17 2 -7 18 -8 18 -15 -1 -8 -17 -9 -16 -9 8 -1
15 -8 39 -17 52 -9 14 -13 25 -8 25 9 0 -28 29 -38 30 -3 0 -9 -8 -11 -17 -3
-10 -5 -4 -6 13 -1 22 -6 31 -18 31 -10 0 -22 -5 -26 -11 -5 -7 -7 -3 -6 9 4
52 -11 59 -42 23 -16 -20 -20 -21 -29 -8 -15 22 -12 31 10 37 19 5 19 6 3 18
-10 7 -22 10 -28 7 -16 -10 -35 -11 -41 -1 -9 16 -42 10 -46 -8 -3 -15 -5 -14
-10 5 -4 15 -2 22 8 22 8 0 14 5 14 10 0 6 -11 10 -25 10 -14 0 -28 7 -31 15
-4 8 -15 15 -25 15 -21 0 -26 25 -8 36 19 11 -13 24 -33 13 -17 -9 -18 -8 -6
10 17 28 3 38 -22 16 -19 -17 -20 -17 -20 0 0 10 -5 15 -14 12 -8 -3 -19 5
-26 19 -9 16 -19 22 -31 19 -11 -4 -24 3 -36 18 -14 19 -26 23 -56 21 -27 -2
-40 1 -44 12 -4 12 -8 13 -14 3 -5 -9 -10 -5 -14 13 -4 15 -14 29 -22 33 -14
5 -14 8 3 20 10 9 15 15 9 14 -27 -4 -46 2 -39 12 4 8 -1 9 -16 4 -19 -6 -21
-4 -15 14 5 17 2 21 -15 21 -19 0 -21 4 -15 30 5 24 3 30 -10 30 -9 0 -13 -4
-10 -10 13 -21 -19 -9 -41 15 -13 14 -32 25 -43 25 -11 0 -27 10 -35 22 -11
15 -16 18 -17 8 0 -8 -5 -4 -10 9 -6 15 -6 28 1 36 5 6 7 15 3 19 -4 3 -13 -8
-21 -26 -10 -23 -16 -28 -20 -18 -7 19 -73 82 -79 76 -3 -3 5 -19 17 -36 22
-31 21 -42 -4 -46 -7 -1 -13 6 -12 15 0 9 -4 15 -10 14 -7 -1 -10 13 -8 37 2
29 -1 40 -12 40 -8 0 -14 5 -14 10 0 6 -4 10 -10 10 -5 0 -7 -7 -4 -15 4 -10
0 -15 -13 -15 -29 0 -44 20 -32 42 7 12 6 18 -1 18 -6 0 -9 8 -6 18 6 20 -11
45 -36 55 -11 4 -18 17 -18 32 0 22 -4 25 -37 26 -25 1 -30 3 -15 6 13 3 21 8
19 11 -2 4 -10 22 -17 40 -16 37 -40 43 -40 10 0 -21 0 -21 -15 -2 -16 22 -20
48 -5 39 6 -3 10 -2 10 4 0 5 -4 13 -10 16 -5 3 -10 1 -10 -5 0 -7 -7 -10 -15
-6 -8 3 -14 2 -14 -2 1 -4 1 -15 0 -24 -2 -29 -21 -20 -21 10 0 15 -9 41 -20
57 -11 17 -20 40 -20 52 0 13 -5 22 -11 20 -6 -1 -13 14 -15 33 -2 19 -9 37
-14 38 -6 2 -10 10 -10 18 0 7 -9 19 -20 26 -11 7 -20 18 -20 25 0 7 -4 13
-10 13 -5 0 -10 8 -10 19 0 10 -11 31 -25 47 -14 16 -29 34 -33 39 -13 18 -31
88 -25 98 4 6 1 7 -7 2 -14 -9 -30 11 -30 38 0 19 -22 47 -36 47 -5 0 -3 -5 4
-12 19 -19 14 -28 -13 -28 -15 0 -25 6 -25 15 0 8 -9 20 -19 27 -12 7 -17 16
-11 23 5 6 1 19 -10 32 -17 22 -18 22 -23 3 -3 -11 -10 -20 -15 -20 -16 0 -24
34 -10 45 15 11 23 95 10 95 -11 0 -35 51 -27 58 3 3 -2 13 -11 23 -8 9 -16
26 -17 38 -1 23 -13 28 -20 9 -3 -10 -7 -10 -20 0 -9 8 -21 11 -26 8 -13 -9
-32 29 -25 48 7 18 24 22 24 6 0 -5 5 -10 11 -10 6 0 17 -7 25 -15 17 -17 49
-21 39 -5 -4 6 -11 8 -16 5 -5 -4 -9 -2 -9 3 0 4 -15 26 -34 48 -18 21 -37 54
-40 72 -4 18 -12 29 -17 26 -6 -4 -6 -11 1 -19 8 -9 8 -15 0 -20 -15 -9 -32 5
-26 22 3 8 1 11 -4 8 -6 -3 -10 1 -10 9 0 9 -4 16 -10 16 -13 0 -13 -17 0 -25
10 -6 2 -35 -10 -35 -8 0 -23 43 -25 67 -1 17 -9 23 -23 14z m338 -1101 c0 -4
18 -30 40 -58 22 -27 40 -55 40 -61 0 -6 3 -11 8 -11 4 0 12 -8 17 -19 18 -33
85 -132 105 -154 11 -11 20 -26 20 -32 0 -7 12 -23 28 -37 15 -13 38 -40 52
-58 14 -19 37 -48 53 -66 15 -17 27 -43 27 -58 0 -14 5 -26 10 -26 6 0 10 5
10 12 0 19 38 -22 44 -48 4 -14 18 -29 32 -34 14 -6 28 -19 31 -30 3 -11 9
-18 12 -15 4 2 30 -18 57 -46 36 -37 46 -52 36 -58 -11 -7 -10 -11 3 -25 22
-21 39 -21 30 2 -5 13 -1 12 14 -5 24 -26 28 -41 6 -23 -8 7 -15 9 -15 4 0
-18 16 -30 38 -28 20 1 23 -2 18 -22 -6 -22 7 -34 17 -16 2 4 3 2 1 -4 -3 -15
5 -25 49 -57 30 -23 37 -34 37 -61 0 -28 5 -35 25 -40 18 -5 25 -13 25 -32 0
-14 4 -23 9 -19 6 3 14 -3 20 -12 6 -10 11 -13 11 -6 0 7 6 10 14 7 8 -3 12
-12 9 -20 -3 -8 1 -14 11 -14 19 0 21 -21 4 -39 -11 -12 -9 -13 7 -6 48 18 56
18 48 -1 -5 -13 -3 -16 10 -11 10 4 22 -2 31 -15 9 -12 27 -22 43 -23 15 -1
36 -5 46 -9 13 -6 17 -3 18 10 1 11 5 0 11 -23 9 -44 28 -59 28 -23 0 11 5 20
11 20 7 0 8 -11 4 -30 -5 -21 -3 -30 6 -30 8 0 7 -6 -4 -18 -24 -26 -22 -46 2
-32 31 16 38 11 14 -9 -23 -19 -21 -34 3 -24 11 4 13 -2 8 -26 -4 -20 -3 -31
5 -31 6 0 11 5 11 10 0 6 5 10 11 10 6 0 8 -7 5 -16 -5 -13 0 -14 30 -10 22 4
33 2 29 -4 -3 -5 -1 -10 5 -10 6 0 9 -4 6 -9 -3 -5 2 -11 13 -14 13 -3 17 -13
16 -36 -1 -24 2 -31 17 -31 11 0 18 -7 18 -20 0 -13 5 -18 15 -14 10 4 15 0
15 -11 0 -13 -6 -16 -24 -11 -14 3 -27 2 -31 -4 -6 -10 40 -26 63 -22 6 2 12
-4 12 -13 0 -11 7 -14 25 -11 20 4 26 0 32 -22 6 -24 7 -25 14 -7 7 19 8 19 8
1 1 -11 4 -16 8 -12 4 4 13 -8 19 -26 12 -36 30 -37 26 -1 -3 18 0 21 13 17
12 -5 15 -14 11 -30 -4 -15 -2 -24 5 -24 6 0 9 -7 5 -15 -3 -8 -3 -15 0 -15 2
0 9 10 14 23 5 13 9 16 9 7 1 -8 10 -21 22 -28 16 -10 20 -10 18 0 -3 24 1 38
11 38 5 0 7 -7 4 -15 -4 -8 1 -17 10 -21 12 -5 14 -10 6 -19 -8 -10 1 -15 42
-20 29 -4 58 -11 65 -17 7 -5 14 -5 17 1 7 10 48 8 86 -4 12 -4 20 -15 21 -28
0 -12 3 -16 6 -9 6 14 43 16 43 2 0 -5 -7 -10 -15 -10 -8 0 -15 -4 -15 -10 0
-14 33 -13 48 2 9 9 12 9 12 0 0 -7 3 -12 8 -11 22 3 52 -16 61 -40 5 -14 10
-20 10 -13 1 6 6 12 13 12 6 0 8 -3 5 -7 -8 -7 22 -32 40 -33 6 0 13 7 15 15
2 11 13 6 42 -20 45 -40 42 -39 79 -21 15 8 27 11 27 5 0 -5 11 -9 24 -9 20 0
23 -4 19 -21 -5 -19 -3 -21 20 -15 23 5 27 3 27 -14 0 -15 7 -20 25 -20 20 0
25 -5 25 -26 0 -18 6 -28 21 -31 16 -5 20 -12 17 -37 -3 -27 0 -31 22 -34 22
-2 23 -1 8 8 -18 11 -25 40 -10 40 13 0 32 -48 26 -64 -4 -10 1 -14 15 -13 14
1 20 6 16 15 -3 7 0 10 6 6 6 -3 8 -15 6 -25 -4 -13 -1 -19 8 -17 8 2 20 -6
28 -17 13 -16 17 -17 31 -6 14 12 16 10 16 -10 0 -22 0 -22 15 -3 14 18 14 18
15 0 0 -14 5 -17 21 -13 14 4 19 1 16 -7 -3 -6 1 -20 9 -31 14 -18 14 -18 14
3 0 12 4 22 9 22 5 0 7 -9 4 -20 -3 -11 0 -20 6 -20 6 0 11 5 11 10 0 6 7 10
15 10 8 0 15 -3 15 -7 0 -15 -19 -38 -31 -38 -7 0 -14 -6 -17 -14 -3 -10 0
-12 12 -8 10 4 22 7 27 7 5 0 9 8 10 18 0 12 2 13 6 3 3 -8 -2 -20 -13 -28
-16 -12 -15 -13 15 -13 20 0 40 7 48 18 13 15 14 15 9 0 -5 -19 20 -33 28 -15
2 7 5 5 5 -4 1 -9 -8 -19 -20 -22 -12 -3 -18 -10 -15 -16 5 -7 15 -7 32 -1 35
14 37 13 31 -10 -5 -19 8 -29 15 -11 2 5 9 3 16 -5 11 -12 9 -16 -13 -24 -29
-11 -33 -22 -7 -19 9 1 28 1 42 0 23 -2 24 -3 7 -15 -17 -13 -16 -15 15 -22
36 -9 35 -9 61 1 12 5 17 3 15 -6 -2 -8 3 -14 10 -14 6 0 12 5 13 10 1 13 29
29 36 21 4 -3 0 -6 -8 -7 -8 0 -6 -4 6 -9 28 -12 47 -12 40 0 -7 11 8 14 18 3
4 -3 -1 -12 -11 -19 -16 -12 -16 -13 3 -14 11 0 30 -3 43 -6 16 -5 22 -2 22
10 0 9 8 16 20 16 11 0 20 -6 20 -12 0 -10 3 -9 9 1 5 8 16 11 29 7 25 -8 38
10 22 29 -7 8 -9 15 -5 15 4 0 14 -8 21 -17 12 -17 13 -16 14 5 0 12 6 22 14
22 8 0 16 -10 19 -22 3 -21 5 -20 16 9 8 20 23 35 42 42 20 7 27 15 23 25 -3
9 -1 16 5 16 6 0 11 -6 11 -14 0 -8 5 -18 11 -22 9 -5 10 1 5 20 -7 28 10 36
32 14 9 -9 12 -6 12 16 0 17 5 26 12 24 17 -6 37 14 31 29 -3 8 3 13 16 13 12
0 21 5 21 10 0 6 7 10 15 10 8 0 15 5 15 10 0 6 -9 10 -19 10 -11 0 -22 4 -25
9 -4 5 2 7 12 4 12 -3 22 4 30 19 6 13 11 16 9 8 -1 -9 2 -17 8 -18 5 -1 10
13 9 31 0 18 7 37 15 44 12 9 12 12 3 13 -22 0 -2 20 21 21 20 0 20 1 5 12
-15 10 -15 12 0 25 9 7 12 11 6 8 -6 -3 -10 9 -11 30 -1 28 3 34 20 35 12 0
16 3 10 6 -15 6 -17 33 -3 33 6 0 10 6 10 14 0 8 6 17 13 19 9 4 9 8 -1 15
-11 7 -9 11 8 15 12 3 19 10 15 16 -3 6 1 14 9 17 21 8 20 24 -1 25 -17 1 -17
2 0 6 20 5 22 14 5 32 -11 12 -10 13 6 7 13 -5 17 -2 13 9 -4 8 -1 18 6 22 7
5 12 14 13 21 4 45 4 45 19 32 12 -10 16 -9 21 5 4 9 1 20 -6 25 -7 5 -8 10
-2 14 5 3 13 -2 16 -11 5 -13 9 -14 19 -4 9 9 9 14 -3 21 -12 8 -12 10 -1 10
7 0 11 6 7 15 -3 9 0 15 8 15 8 0 16 9 19 20 3 14 14 20 32 20 15 0 24 -4 20
-10 -3 -5 -1 -10 4 -10 6 0 11 7 11 15 0 8 -4 15 -10 15 -5 0 -10 5 -10 11 0
6 9 8 20 4 16 -5 20 -2 20 16 0 18 -3 19 -15 9 -28 -23 -39 1 -11 26 25 24 42
32 31 15 -3 -5 -1 -12 4 -15 5 -4 12 3 16 14 3 11 10 20 15 20 12 0 19 37 8
48 -19 19 44 82 75 74 4 -1 7 5 7 15 0 14 2 14 21 -3 21 -19 22 -19 15 2 -4
13 -1 26 8 33 12 11 14 7 10 -21 -2 -18 -17 -80 -33 -138 -16 -58 -35 -125
-42 -150 -6 -25 -15 -53 -20 -63 -6 -11 -5 -25 1 -37 9 -17 8 -20 -9 -20 -19
0 -19 -2 -6 -32 7 -18 21 -35 30 -36 19 -4 55 -37 55 -50 0 -5 9 -17 20 -27
12 -11 18 -25 15 -36 -3 -9 0 -21 6 -25 8 -5 10 -2 6 9 -6 17 19 32 28 17 4
-6 2 -10 -3 -10 -18 0 -23 -33 -7 -50 8 -9 12 -20 8 -25 -5 -4 -3 -5 4 -1 7 4
10 14 7 24 -5 16 -5 16 6 0 6 -10 10 -24 9 -30 -4 -37 2 -69 13 -62 6 4 8 3 4
-4 -3 -6 -2 -13 4 -17 6 -4 7 -11 4 -17 -4 -6 -10 -5 -16 3 -7 10 -8 8 -4 -6
14 -49 13 -95 -1 -158 -8 -37 -12 -74 -9 -82 3 -8 -1 -27 -8 -42 -19 -39 -28
-83 -18 -83 10 0 32 45 32 65 0 8 5 15 10 15 6 0 10 6 9 13 -3 15 11 76 22 97
4 8 24 67 44 130 40 131 52 244 29 288 -12 24 -12 27 3 31 10 2 19 -2 21 -8 2
-6 10 -17 17 -24 7 -7 16 -27 20 -45 3 -18 14 -36 23 -42 9 -5 13 -10 8 -10
-4 0 -2 -10 6 -22 8 -13 20 -43 28 -68 7 -25 20 -58 29 -75 8 -16 16 -39 18
-50 2 -11 14 -29 27 -40 12 -11 26 -32 30 -47 3 -16 11 -28 16 -28 5 0 6 7 3
17 -4 11 -3 14 5 9 7 -4 12 -16 12 -26 0 -10 4 -22 10 -25 14 -9 37 -66 38
-95 1 -13 7 -29 14 -35 8 -5 24 -27 37 -48 13 -21 28 -43 35 -50 28 -30 36
-66 24 -113 -11 -41 -11 -47 5 -55 9 -6 17 -17 17 -24 0 -8 4 -14 9 -12 12 3
61 -54 61 -71 0 -7 7 -15 15 -18 8 -4 15 -11 15 -16 0 -13 32 -81 41 -88 3 -3
10 -21 14 -40 4 -19 11 -39 15 -45 6 -9 58 -135 90 -222 7 -18 16 -33 21 -33
5 0 9 -11 9 -25 0 -14 5 -25 10 -25 6 0 10 -9 10 -19 0 -11 5 -23 11 -27 6 -3
9 -15 6 -25 -3 -11 1 -20 12 -24 12 -3 17 -16 17 -41 0 -24 6 -41 19 -51 17
-12 18 -15 5 -23 -10 -7 -11 -10 -2 -10 13 0 37 -47 33 -64 -1 -5 2 -12 6 -15
11 -7 53 -116 60 -153 3 -16 9 -28 14 -28 5 0 9 -6 9 -13 0 -7 9 -29 19 -48
24 -45 71 -183 71 -209 0 -10 5 -22 10 -25 6 -3 10 -14 10 -23 0 -9 7 -28 14
-42 32 -56 46 -92 96 -239 28 -84 49 -156 46 -159 -3 -3 -2 -10 3 -16 14 -17
78 -233 87 -290 2 -17 8 -32 13 -35 4 -3 10 -17 13 -31 3 -14 15 -59 26 -101
11 -41 23 -88 25 -105 26 -141 38 -199 52 -250 9 -32 19 -72 22 -89 3 -16 9
-35 14 -40 4 -6 13 -41 19 -78 5 -36 15 -79 21 -94 6 -16 10 -29 9 -31 -1 -1
1 -20 5 -42 4 -24 12 -40 21 -40 14 0 21 -20 28 -80 2 -19 13 -55 24 -80 11
-25 22 -68 25 -97 3 -29 8 -57 12 -62 3 -6 8 -23 10 -38 2 -16 11 -59 20 -98
34 -150 67 -303 80 -370 54 -282 63 -336 70 -410 3 -39 9 -78 11 -87 6 -21 5
-315 -2 -418 -11 -175 -41 -321 -85 -416 -10 -23 -19 -48 -19 -57 0 -9 -5 -19
-10 -22 -6 -4 -8 -11 -4 -16 3 -6 -4 -21 -17 -35 -12 -13 -18 -24 -13 -24 5 0
3 -4 -4 -9 -8 -5 -15 -20 -15 -35 -1 -15 -8 -26 -16 -26 -8 0 -12 -3 -8 -6 6
-6 -30 -81 -43 -89 -12 -7 -63 -114 -63 -131 0 -8 -7 -14 -15 -14 -10 0 -12
-7 -8 -25 4 -14 2 -25 -4 -25 -5 0 -10 -7 -10 -15 0 -8 -4 -15 -10 -15 -5 0
-10 -8 -10 -18 0 -11 -9 -27 -20 -37 -16 -14 -17 -20 -8 -26 10 -6 8 -12 -7
-23 -11 -9 -26 -16 -33 -16 -12 0 -29 -55 -23 -75 1 -5 0 -7 -4 -3 -11 11 -45
-25 -45 -48 0 -13 -8 -24 -19 -27 -12 -3 -19 -13 -19 -30 0 -14 -7 -33 -16
-42 -14 -15 -21 -36 -17 -58 1 -5 -4 -5 -10 -1 -9 5 -10 -2 -6 -24 4 -22 3
-31 -5 -29 -7 1 -13 -7 -15 -18 -5 -45 -16 -91 -24 -108 -6 -9 -7 -22 -4 -27
6 -10 -13 -50 -30 -62 -6 -5 -5 -8 4 -8 10 0 11 -3 2 -14 -6 -8 -11 -18 -10
-22 1 -5 0 -12 -1 -16 -6 -19 -8 -25 -15 -56 -4 -18 -12 -35 -16 -38 -5 -3 -9
-18 -9 -33 0 -15 -8 -36 -18 -47 -10 -11 -17 -25 -15 -31 2 -6 -3 -25 -11 -41
-8 -16 -13 -32 -10 -35 3 -3 -4 -19 -16 -35 -29 -39 -30 -102 -2 -212 36 -144
52 -179 108 -234 6 -6 9 -18 6 -28 -3 -11 1 -18 10 -18 22 0 35 -55 36 -150 0
-71 -2 -86 -16 -92 -16 -6 -15 -7 1 -7 18 -1 25 -21 7 -21 -5 0 -10 -6 -10
-14 0 -8 -5 -16 -11 -18 -5 -2 -11 -27 -11 -56 -1 -36 -5 -52 -15 -52 -7 0
-13 -4 -13 -10 0 -5 4 -10 9 -10 8 0 9 -45 1 -60 -2 -3 -4 -12 -5 -20 -5 -49
-19 -100 -26 -100 -4 0 -13 -25 -20 -55 -7 -30 -16 -55 -22 -55 -5 0 -7 -9 -4
-20 3 -11 1 -23 -4 -26 -5 -3 -7 -10 -4 -15 4 -5 1 -9 -4 -9 -6 0 -11 -9 -11
-20 0 -11 -6 -20 -12 -20 -10 0 -10 -2 -1 -8 8 -5 6 -17 -8 -42 -11 -22 -18
-28 -19 -17 0 9 -4 17 -10 17 -5 0 -10 11 -10 24 0 13 -7 37 -15 52 -8 16 -15
36 -15 45 0 9 -7 36 -16 60 -8 24 -17 51 -19 59 -3 8 -13 41 -25 74 -11 32
-17 62 -15 66 3 5 2 11 -2 13 -5 3 -17 35 -28 71 -11 36 -24 66 -28 66 -5 0
-6 4 -2 9 5 9 -11 53 -36 103 -5 10 -9 25 -9 33 0 8 -4 24 -10 35 -5 11 -14
29 -20 40 -5 11 -10 27 -10 35 0 8 -4 15 -9 15 -5 0 -12 15 -15 34 -4 19 -13
39 -20 45 -8 6 -16 24 -19 40 -3 16 -13 36 -22 44 -8 9 -15 27 -15 41 0 14 -4
26 -10 26 -5 0 -10 9 -10 19 0 11 -4 22 -9 26 -5 3 -12 19 -16 35 -4 17 -11
30 -15 30 -5 0 -15 18 -21 40 -7 22 -18 45 -26 51 -7 6 -13 18 -13 25 0 15
-50 115 -62 124 -4 3 -9 15 -11 26 -1 11 -12 35 -22 54 -11 19 -26 53 -34 75
-8 22 -22 52 -32 67 -11 14 -19 33 -19 41 0 8 -6 20 -14 27 -8 6 -13 17 -10
24 3 8 -2 16 -10 19 -9 4 -16 17 -16 30 0 14 -7 30 -15 37 -8 6 -14 15 -13 18
2 13 -26 72 -34 72 -4 0 -8 12 -8 26 0 14 -8 38 -18 52 -10 15 -24 42 -31 60
-8 17 -18 32 -23 32 -5 0 -8 6 -5 13 4 11 -52 126 -74 153 -5 6 -6 13 -3 16 3
4 -6 24 -20 47 -14 22 -26 45 -26 51 0 5 -4 10 -9 10 -5 0 -11 8 -13 18 -3 9
-6 22 -7 27 -2 6 -13 28 -24 50 -12 22 -21 42 -22 45 -1 14 -77 160 -85 165
-6 4 -10 15 -10 25 0 10 -6 23 -13 27 -8 4 -22 32 -32 61 -11 28 -23 52 -27
52 -4 0 -8 7 -8 15 0 8 -4 15 -10 15 -5 0 -10 6 -10 13 0 21 -31 80 -49 94 -9
7 -12 13 -8 13 5 0 1 10 -7 22 -9 12 -16 28 -16 34 0 11 -60 118 -79 140 -5 7
-7 15 -4 18 4 3 -1 14 -9 23 -19 22 -68 128 -68 147 0 8 -7 16 -15 20 -8 3
-15 14 -15 24 0 11 -8 30 -17 43 -27 37 -40 59 -69 117 -14 28 -30 52 -35 52
-5 0 -9 7 -9 15 0 20 -33 89 -47 98 -7 4 -10 13 -7 20 2 6 -7 24 -20 38 -14
15 -22 30 -19 33 4 3 -1 6 -10 6 -10 0 -14 5 -11 15 3 8 -1 24 -10 37 -9 12
-16 31 -16 41 0 9 -6 20 -14 23 -13 5 -31 49 -28 67 1 4 -2 7 -6 7 -14 0 -51
95 -56 148 -3 18 -9 26 -19 24 -10 -2 -19 10 -27 33 -7 21 -16 32 -22 29 -7
-5 -8 -2 -4 5 5 7 -3 28 -16 49 -13 20 -37 63 -53 95 -15 31 -32 57 -37 57 -5
0 -6 5 -3 11 4 5 0 18 -8 27 -13 15 -40 65 -77 145 -8 15 -19 26 -26 23 -8 -3
-11 0 -8 9 3 7 -4 30 -16 52 -39 71 -55 98 -61 103 -3 3 -20 34 -37 70 -38 76
-92 176 -131 240 -16 25 -50 83 -76 130 -27 47 -57 96 -67 109 -10 13 -18 31
-18 40 0 10 -9 27 -20 39 -11 12 -20 28 -20 36 0 8 -8 20 -17 25 -10 6 -14 11
-10 11 5 0 1 12 -7 28 -8 15 -17 34 -20 42 -4 8 -15 29 -26 45 -10 17 -33 57
-49 90 -17 33 -35 67 -40 75 -28 45 -82 140 -83 147 -1 4 -24 46 -53 93 -29
47 -58 99 -65 116 -8 18 -19 30 -26 27 -8 -3 -11 2 -7 16 3 12 1 21 -4 21 -5
0 -15 12 -22 28 -7 15 -11 27 -9 27 1 0 -7 14 -20 32 -12 17 -22 36 -22 42 0
5 -6 14 -13 18 -12 8 -42 58 -76 131 -8 17 -19 32 -23 32 -4 0 -8 7 -8 14 0
13 -10 33 -66 136 -8 14 -14 31 -14 39 0 7 -6 11 -14 8 -10 -4 -13 -1 -9 9 3
7 0 14 -6 14 -6 0 -11 11 -11 24 0 14 -7 31 -15 40 -8 8 -15 17 -15 20 0 16
-217 446 -264 521 -65 107 -106 184 -106 202 0 7 -4 13 -9 13 -5 0 -12 12 -15
28 -4 15 -20 54 -36 87 -15 33 -35 77 -44 97 -9 20 -21 40 -26 43 -5 3 -7 12
-4 19 3 7 -2 16 -11 20 -10 3 -15 12 -11 21 3 8 1 15 -3 15 -13 0 -62 90 -55
101 3 5 0 9 -5 9 -6 0 -11 7 -11 15 0 8 -4 23 -9 33 -12 20 -25 73 -22 86 1 5
-4 16 -12 25 -11 13 -37 85 -37 104 0 3 9 3 20 0 11 -3 20 -9 20 -13 0 -4 22
-13 50 -20 27 -6 54 -18 61 -26 13 -16 91 -55 97 -49 9 8 -11 26 -24 21 -8 -3
-11 0 -8 8 3 8 -4 16 -18 20 -22 7 -22 7 -3 16 11 5 15 9 9 9 -12 1 -28 31
-20 38 2 2 13 -1 23 -8 16 -9 25 -8 47 6 25 17 26 19 11 41 -14 22 -14 24 0
24 9 0 13 -4 10 -10 -3 -6 5 -10 18 -10 22 0 25 5 29 40 3 31 0 40 -12 41 -8
0 -3 5 13 11 27 10 33 19 21 31 -4 3 -13 -1 -21 -9 -8 -8 -20 -11 -26 -7 -6 4
-2 9 11 14 22 8 27 48 7 61 -5 4 0 8 12 8 29 0 38 -16 16 -29 -16 -9 -15 -10
8 -11 22 0 26 4 22 24 -4 20 -13 26 -44 31 -21 4 -42 12 -46 18 -4 6 0 8 11 4
21 -8 35 21 15 33 -7 5 -16 7 -20 4 -8 -5 -18 43 -11 51 3 3 14 5 24 5 12 0
18 7 17 23 -1 16 -2 18 -6 5 -3 -11 -14 -18 -29 -18 -25 0 -33 15 -12 22 9 3
7 10 -6 23 -15 15 -22 16 -37 7 -24 -15 -24 -9 -2 14 16 16 16 16 -5 10 -13
-5 -22 -3 -22 3 0 6 11 11 25 11 14 0 25 -5 25 -12 0 -6 2 -9 5 -6 11 11 -8
38 -26 38 -11 0 -19 7 -19 16 0 8 -3 13 -7 11 -19 -11 -53 13 -53 37 0 28 -14
35 -56 30 l-29 -4 28 12 c26 11 33 36 8 30 -6 -1 -11 10 -11 24 0 14 -4 23
-10 19 -5 -3 -10 -2 -10 4 0 5 6 12 13 14 6 3 3 6 -7 6 -11 1 -17 4 -14 7 7 7
-36 54 -49 54 -6 0 -10 13 -11 30 -1 43 -8 50 -42 40 -17 -5 -30 -6 -30 -3 0
3 -6 1 -12 -4 -9 -6 -21 -6 -35 2 l-23 12 25 13 c23 12 25 30 4 30 -6 0 -7 -4
-4 -10 3 -5 0 -10 -8 -10 -8 0 -17 7 -21 15 -3 8 -12 12 -21 9 -11 -5 -15 1
-15 24 0 31 -18 46 -45 36 -8 -4 -15 -1 -15 6 0 6 5 8 13 4 8 -5 8 -2 -2 9 -7
9 -20 17 -27 17 -8 0 -14 5 -14 11 0 5 -5 7 -12 3 -7 -5 -9 -2 -5 9 3 9 0 18
-9 21 -9 3 -12 1 -9 -4 3 -6 -1 -10 -10 -10 -9 0 -14 4 -11 8 8 13 -6 28 -44
47 -19 10 -41 26 -48 36 -7 11 -19 19 -27 19 -17 0 -38 34 -27 44 3 4 -1 4
-11 0 -13 -5 -16 -2 -10 11 5 15 2 17 -15 13 -15 -4 -22 -2 -22 8 0 12 -25 19
-52 15 -4 0 -5 6 -2 14 4 8 -1 17 -10 21 -9 3 -16 12 -16 20 0 8 -5 14 -12 14
-6 0 -8 3 -5 7 4 3 0 15 -9 25 -14 15 -20 16 -32 5 -13 -10 -15 -9 -10 11 5
17 0 26 -20 37 -33 17 -107 85 -93 85 6 0 -18 28 -52 63 -67 66 -101 106 -79
93 7 -4 12 -2 12 7 0 7 -23 34 -50 59 -38 35 -45 45 -28 41 18 -4 20 -3 8 6
-8 6 -15 14 -15 18 0 4 -8 19 -18 33 -15 21 -19 23 -28 10 -8 -11 -9 -8 -4 13
4 20 2 27 -6 22 -17 -11 -57 41 -64 86 -4 21 -11 37 -16 33 -5 -3 -9 4 -9 16
0 11 -7 23 -15 26 -9 4 -25 28 -36 55 -12 27 -26 49 -31 49 -6 0 -8 9 -5 21 4
15 2 19 -9 15 -9 -3 -14 1 -14 13 0 10 -9 26 -19 35 -11 10 -17 25 -14 34 4
10 2 13 -5 8 -13 -7 -28 22 -36 71 -3 14 -10 29 -15 32 -5 4 -9 15 -8 26 1 11
-3 19 -10 18 -7 -2 -13 6 -13 16 0 11 -5 23 -10 26 -6 4 -8 11 -4 16 3 5 10 7
15 4 5 -4 9 -2 9 3 0 5 -9 12 -20 15 -12 3 -20 14 -20 26 0 12 -6 21 -12 21
-9 0 -9 3 1 9 8 5 16 23 18 41 1 17 -1 29 -5 26 -4 -2 -14 -1 -22 5 -8 5 -10
9 -4 9 7 0 14 9 17 19 3 14 1 18 -9 14 -8 -3 -14 1 -14 11 0 9 3 15 8 14 9 -4
12 5 12 33 0 14 -5 19 -13 16 -8 -3 -20 -1 -28 4 -10 6 -10 9 -1 9 6 0 12 6
12 14 0 8 -6 17 -12 19 -8 3 -6 6 5 6 9 1 17 -5 18 -11 0 -7 5 -2 10 11 5 13
6 27 3 30 -4 3 -9 0 -11 -6 -7 -20 -23 -15 -23 8 0 11 -4 17 -10 14 -5 -3 -10
0 -11 7 -1 7 -5 2 -9 -12 l-8 -25 -1 27 c-1 19 5 29 22 34 26 8 32 7 32 -5 0
-5 4 -13 9 -18 5 -5 6 11 3 38 l-6 45 29 -4 c17 -2 30 -8 30 -12z m-3876
-2412 c6 -4 7 -10 3 -15 -5 -4 -11 -3 -15 2 -12 16 -39 16 -52 0 -11 -13 -10
-14 4 -9 12 5 15 2 10 -10 -5 -13 -1 -15 27 -10 19 4 40 11 47 17 18 14 16
-18 -3 -37 -8 -8 -15 -19 -15 -25 0 -6 7 -11 15 -11 8 0 15 -4 15 -10 0 -5 -6
-7 -14 -4 -8 3 -17 1 -21 -5 -3 -6 -1 -11 5 -11 6 0 18 -6 26 -14 12 -13 12
-15 -5 -21 -35 -11 -46 3 -45 53 1 35 -1 42 -8 27 -10 -22 -57 -49 -59 -34 -1
5 -2 13 -3 19 0 5 -9 19 -20 31 -17 21 -20 21 -31 6 -7 -9 -15 -14 -18 -10 -4
3 -7 2 -7 -3 0 -15 -41 -14 -56 1 -8 7 -14 20 -14 27 0 8 4 7 11 -4 5 -10 14
-18 19 -18 5 0 6 8 3 18 -6 15 -5 16 12 2 17 -14 18 -14 7 7 -12 22 0 43 13
23 7 -12 35 12 35 31 0 7 8 2 19 -9 l18 -22 27 21 c14 11 30 17 36 14 5 -3 10
0 11 7 0 9 2 8 6 -2 3 -8 11 -18 17 -22z m595 -82 c5 -13 17 -26 25 -29 22 -9
20 -34 -3 -40 -15 -4 -18 -1 -13 12 5 13 3 14 -10 3 -9 -7 -15 -21 -13 -30 2
-9 4 -19 4 -21 1 -3 6 0 12 6 12 12 40 6 51 -11 5 -8 11 -7 20 2 19 19 48 15
48 -7 0 -10 7 -24 16 -32 14 -11 14 -13 0 -21 -20 -11 -9 -38 15 -38 17 0 25
-21 20 -52 -3 -19 10 -6 20 19 14 38 30 11 18 -31 -12 -43 -11 -46 7 -13 l15
27 39 -40 c39 -40 44 -51 42 -97 -1 -27 5 -29 30 -6 10 9 21 13 26 8 4 -4 1
-10 -5 -12 -24 -8 -13 -23 16 -23 17 0 31 -6 35 -16 3 -8 2 -13 -3 -10 -12 8
-51 -32 -51 -52 0 -13 4 -11 16 7 21 29 35 12 28 -34 -4 -27 -3 -27 5 -7 6 12
13 22 16 22 4 0 3 -4 0 -10 -3 -5 1 -10 9 -10 9 0 16 -4 16 -10 0 -5 7 -7 15
-4 8 4 12 11 8 18 -4 7 -1 7 9 -1 8 -7 17 -11 19 -8 3 2 6 -9 7 -26 2 -26 0
-30 -18 -24 -11 4 -20 2 -20 -4 0 -6 4 -11 9 -11 5 0 8 -12 5 -26 -4 -24 -2
-26 20 -20 14 3 28 2 31 -4 4 -6 13 -7 22 -2 17 10 63 4 63 -8 0 -5 -9 -6 -20
-3 -11 3 -20 0 -20 -6 0 -5 -6 -8 -13 -5 -7 2 -22 -4 -32 -16 -18 -20 -18 -20
3 -20 13 0 22 -6 22 -15 0 -11 7 -14 25 -9 19 5 25 2 25 -10 0 -9 7 -16 15
-16 17 0 21 -35 5 -45 -6 -4 -8 -11 -4 -16 3 -6 12 -3 19 8 13 17 14 16 8 -6
-5 -21 -3 -23 15 -19 12 4 20 2 16 -3 -3 -5 0 -9 5 -9 6 0 11 -4 11 -10 0 -5
-6 -7 -14 -4 -8 3 -17 0 -22 -7 -4 -8 -3 -10 5 -5 14 9 43 -12 35 -25 -3 -5
-14 -9 -25 -9 -11 0 -18 -4 -14 -9 10 -17 47 -7 62 16 12 17 24 23 52 22 20
-1 28 -3 19 -6 -10 -2 -18 -9 -18 -15 0 -6 -6 -6 -15 2 -12 10 -16 8 -24 -12
-5 -13 -16 -30 -25 -37 -9 -7 -16 -18 -16 -24 0 -5 14 6 30 24 17 19 27 26 24
15 -4 -11 -1 -22 7 -27 12 -8 12 -10 -1 -18 -10 -7 -6 -10 18 -9 43 1 51 -8
13 -17 -17 -4 -31 -11 -31 -15 0 -5 7 -7 16 -3 14 5 15 3 4 -18 -13 -23 -13
-23 12 -7 19 13 28 14 37 5 6 -6 11 -7 11 -1 0 5 -5 15 -12 22 -9 9 -6 9 13 0
26 -12 64 -66 54 -76 -3 -3 -5 0 -5 7 0 9 -8 11 -21 8 -16 -4 -18 -3 -9 8 13
16 -1 28 -24 19 -12 -5 -13 -9 -3 -20 7 -8 17 -20 22 -27 6 -7 15 -25 20 -42
8 -22 17 -30 35 -32 44 -2 45 -3 26 -18 -16 -12 -17 -18 -8 -27 7 -7 12 -22
12 -35 0 -13 5 -23 11 -23 6 0 8 9 4 20 -4 11 -2 20 4 20 6 0 11 -13 11 -29 0
-24 -3 -28 -20 -24 -11 3 -20 0 -20 -6 0 -6 6 -12 13 -12 6 -1 17 -2 22 -4 6
-1 15 -3 20 -4 6 -1 3 -6 -5 -11 -13 -8 -12 -11 5 -16 12 -3 22 -14 22 -26 3
-29 10 -33 28 -14 20 20 32 21 16 2 -8 -10 -9 -16 -1 -21 18 -11 11 -26 -7
-16 -21 11 -38 -4 -38 -34 0 -28 13 -45 30 -38 11 4 13 1 9 -11 -7 -18 -24
-22 -24 -6 0 6 -14 10 -32 10 l-31 0 21 23 c12 13 19 27 15 30 -12 12 -23 7
-23 -10 0 -12 -5 -9 -15 11 -21 39 -19 56 7 56 17 0 19 -3 10 -12 -7 -7 -12
-16 -12 -22 0 -5 6 -1 14 9 18 25 10 38 -20 32 -15 -3 -30 4 -43 19 -21 24
-21 24 -1 24 11 0 20 -4 20 -10 0 -5 4 -10 10 -10 5 0 7 7 4 15 -4 8 -12 15
-20 15 -7 0 -20 9 -28 21 -9 14 -19 18 -28 13 -11 -6 -11 -5 0 8 11 14 11 20
0 37 -7 12 -17 21 -23 21 -15 0 -36 50 -22 51 8 0 8 2 -1 6 -6 2 -9 9 -6 14 3
6 7 21 8 34 2 18 -1 22 -16 20 -10 -2 -22 -6 -28 -10 -11 -7 -32 29 -23 39 3
3 -1 6 -10 6 -16 0 -22 20 -19 63 1 10 -3 15 -8 12 -6 -3 -10 -13 -10 -22 0
-9 -3 -13 -7 -9 -9 8 -15 35 -15 63 0 19 -3 21 -18 13 -14 -7 -17 -6 -16 7 0
9 -10 22 -22 29 -13 6 -19 13 -14 15 18 7 24 46 8 52 -10 4 -13 1 -9 -9 3 -7
0 -14 -6 -14 -6 0 -11 5 -11 11 0 6 -7 9 -15 5 -9 -3 -15 0 -15 9 0 8 -5 26
-12 40 -8 18 -14 22 -20 13 -5 -9 -8 -6 -8 10 0 12 -7 25 -15 28 -8 4 -15 12
-15 20 0 8 -4 14 -10 14 -5 0 -10 11 -10 25 0 14 -5 25 -11 25 -17 0 -41 29
-34 41 4 6 -2 13 -14 16 -14 4 -21 13 -21 30 0 13 -4 21 -10 18 -5 -3 -15 5
-21 19 -6 13 -20 27 -30 29 -12 3 -19 14 -19 31 0 18 -4 24 -14 20 -16 -6 -41
30 -31 45 3 5 -1 11 -7 14 -10 3 -8 10 5 25 12 13 15 22 8 27 -6 3 -11 -1 -11
-9 0 -9 -6 -16 -14 -16 -8 0 -17 -6 -19 -12 -4 -8 -8 -4 -12 9 -4 12 -18 29
-32 38 -19 13 -24 23 -20 42 4 20 1 24 -14 20 -10 -3 -25 4 -35 14 -13 15 -14
19 -3 19 8 1 4 6 -9 13 -12 7 -19 17 -15 22 4 4 2 5 -4 1 -7 -4 -22 2 -35 13
-15 15 -18 21 -7 21 8 1 1 8 -14 16 -15 8 -25 19 -22 24 4 6 -5 14 -19 20 -19
7 -26 17 -26 35 0 15 -6 25 -14 25 -7 0 -16 8 -20 18 -3 9 -9 24 -12 32 -4 8
-3 12 1 8 5 -5 14 1 22 12 19 27 42 25 52 -4z m-455 -87 c-2 -4 4 -6 13 -5 9
0 18 -5 21 -13 3 -10 -1 -11 -19 -5 -58 19 -92 0 -42 -23 32 -15 87 -17 78 -4
-3 6 4 9 15 8 20 -1 29 -17 10 -17 -5 0 -10 -4 -10 -10 0 -5 9 -10 20 -10 24
0 25 -4 5 -34 -14 -21 -14 -25 0 -39 8 -9 15 -23 15 -32 0 -12 5 -15 16 -11 9
3 20 6 25 6 5 0 9 9 9 20 0 17 2 19 14 8 8 -7 10 -14 5 -16 -20 -8 -7 -24 15
-20 18 4 23 1 18 -10 -4 -11 0 -14 14 -10 11 3 26 -1 33 -9 11 -12 10 -17 -5
-28 -23 -17 -35 -19 -31 -4 4 21 -20 20 -26 -1 -4 -16 -11 -20 -25 -16 -13 4
-22 1 -26 -9 -3 -8 -1 -15 4 -15 6 0 10 5 10 11 0 5 4 8 9 5 12 -8 11 -60 -3
-68 -8 -6 -7 -8 2 -8 10 0 10 -5 2 -20 -7 -13 -21 -20 -40 -20 -20 0 -31 -6
-35 -20 -9 -27 -75 -29 -75 -2 0 11 -8 18 -21 19 -14 1 -19 -3 -15 -13 3 -8 4
-14 2 -14 -7 0 -56 50 -49 50 4 0 1 5 -7 10 -13 9 -13 10 0 10 13 0 13 1 0 10
-22 14 -5 23 30 15 22 -5 30 -11 26 -22 -4 -9 -1 -13 6 -10 7 2 12 9 11 15 -2
6 7 14 18 17 22 7 22 36 1 43 -8 2 -12 -2 -10 -13 2 -10 -3 -20 -11 -23 -8 -3
-11 0 -7 7 5 7 -3 9 -26 5 -23 -4 -29 -3 -19 4 17 12 6 32 -17 32 -15 0 -15
-2 -2 -10 12 -8 9 -10 -12 -10 -22 0 -28 -5 -28 -21 0 -12 -8 -23 -20 -26 -11
-3 -17 -9 -14 -14 3 -5 0 -9 -6 -9 -7 0 -9 7 -6 16 3 9 6 21 6 27 0 8 3 7 9
-2 5 -8 11 -9 15 -3 3 6 2 13 -4 17 -15 9 -12 25 5 25 8 0 15 9 15 20 0 11 5
20 12 20 6 0 3 6 -8 14 -10 8 -20 10 -22 5 -2 -5 -11 -9 -20 -9 -13 0 -13 -2
3 -13 13 -10 15 -16 6 -21 -18 -12 -43 14 -37 38 6 24 -9 54 -21 43 -4 -5 -1
-12 6 -16 14 -9 7 -31 -10 -31 -6 0 -7 5 -4 10 3 6 -1 10 -10 10 -15 0 -15 2
-1 22 20 28 20 39 1 32 -8 -4 -13 -10 -10 -14 9 -14 -23 -32 -45 -25 -20 6
-28 25 -10 25 6 0 10 7 10 15 0 17 17 20 22 5 2 -7 11 -5 23 4 20 15 19 15 -5
16 -20 0 -22 2 -10 10 10 6 11 10 3 10 -7 0 -13 5 -13 11 0 6 9 8 20 4 11 -4
20 -2 20 4 0 6 -13 11 -30 11 -23 0 -28 4 -23 16 3 10 13 14 25 11 12 -4 18
-1 15 6 -2 7 -9 12 -14 12 -20 0 -25 13 -14 32 6 11 11 13 11 5 0 -9 7 -11 19
-7 14 4 18 1 17 -11 0 -9 5 -19 12 -21 7 -3 11 1 10 9 -2 8 9 14 30 16 19 2
32 -1 32 -8 0 -6 4 -9 9 -6 5 4 11 1 13 -6 3 -7 10 1 18 18 11 25 18 29 51 29
20 0 36 -3 33 -6z m230 -384 c-7 -17 -3 -18 49 -6 20 5 37 7 37 6 0 -23 -15
-33 -41 -28 -18 3 -29 1 -29 -6 0 -6 6 -11 13 -12 10 0 10 -2 0 -6 -17 -6 -17
-43 0 -43 7 0 18 5 24 11 9 9 12 7 10 -10 -1 -21 -8 -25 -39 -22 -10 1 -18 -4
-18 -13 0 -10 -6 -13 -15 -10 -16 7 -19 -4 -7 -23 6 -10 13 -9 33 1 13 7 31
10 38 8 10 -3 12 0 8 11 -3 8 0 18 8 20 19 8 27 -4 13 -20 -15 -18 -2 -29 16
-14 8 7 24 10 36 6 11 -3 20 -2 20 3 0 7 11 6 30 -1 28 -11 42 -37 20 -37 -5
0 -10 4 -10 9 0 15 -31 21 -45 8 -11 -10 -11 -15 2 -29 15 -17 14 -18 -11 -18
-16 0 -25 -4 -21 -10 10 -17 40 -11 64 11 19 18 25 19 32 8 12 -19 11 -29 -2
-29 -5 0 -7 5 -3 11 4 7 1 10 -6 7 -8 -2 -16 -10 -18 -18 -3 -7 0 -10 6 -6 6
3 13 2 17 -4 6 -9 45 -15 45 -6 0 2 3 11 6 20 3 9 1 16 -6 16 -6 0 -8 -6 -5
-12 4 -7 -1 -4 -9 6 -21 26 -20 46 2 46 14 0 15 -2 2 -10 -13 -8 -13 -10 1
-10 9 0 24 -9 34 -20 10 -12 25 -18 32 -16 27 11 12 -11 -19 -27 -21 -10 -27
-16 -15 -16 18 -1 25 -41 6 -41 -5 0 -7 -5 -4 -10 4 -6 0 -21 -9 -34 -14 -23
-14 -24 9 -29 25 -4 34 6 15 18 -8 5 -8 11 -1 19 6 7 9 15 6 18 -3 3 1 11 10
18 13 11 14 10 9 -4 -10 -25 12 -19 36 11 15 20 23 24 29 15 5 -8 15 -10 27
-6 19 7 19 7 0 -14 -19 -22 -43 -31 -31 -13 3 5 1 12 -5 16 -5 3 -10 -3 -10
-15 0 -12 -4 -19 -9 -16 -5 4 -7 -3 -4 -14 4 -15 9 -17 23 -10 13 7 21 7 25 0
3 -5 -1 -10 -9 -10 -9 0 -16 -4 -16 -10 0 -5 7 -6 17 -3 10 4 14 2 10 -4 -4
-6 0 -13 8 -17 9 -3 15 0 15 9 0 8 4 15 8 15 4 0 8 -9 8 -20 0 -11 -4 -20 -8
-20 -4 0 -5 -7 -2 -15 5 -11 11 -12 24 -5 34 18 35 10 2 -16 -25 -20 -31 -31
-26 -46 6 -19 3 -20 -22 -14 -27 7 -28 6 -9 -7 24 -19 48 -10 42 14 -3 12 4
26 20 39 28 22 55 28 36 9 -6 -6 -9 -19 -6 -28 3 -11 2 -12 -4 -4 -6 8 -14 9
-23 3 -8 -6 -12 -10 -7 -11 4 -1 12 -3 17 -4 6 -1 14 -3 19 -4 5 0 11 -8 13
-17 3 -14 7 -13 30 5 l27 22 -16 -48 c-19 -58 -22 -61 -33 -43 -7 11 -9 9 -7
-8 1 -14 6 -21 14 -17 11 3 11 0 3 -15 -14 -26 1 -26 20 0 8 11 18 20 23 20 4
0 18 10 30 23 12 13 16 16 10 7 -23 -30 -16 -44 12 -26 14 9 25 12 25 7 0 -5
-7 -12 -16 -15 -8 -3 -12 -10 -9 -16 3 -5 2 -10 -3 -10 -5 0 -21 -11 -36 -25
-25 -23 -25 -25 -7 -25 12 0 21 5 21 10 0 6 6 10 14 10 8 0 17 6 20 13 4 8 5
7 5 -3 -2 -31 1 -40 15 -40 8 0 18 -4 21 -10 4 -6 -1 -7 -12 -3 -16 6 -16 5
-4 -10 16 -20 42 -22 59 -5 10 10 15 10 22 -2 13 -20 12 -37 0 -45 -6 -3 -10
3 -10 15 0 14 -4 19 -12 14 -20 -13 -66 -10 -61 4 3 6 0 12 -7 12 -6 0 -9 -4
-6 -8 12 -20 -14 -36 -53 -33 -23 1 -41 -1 -41 -6 0 -5 12 -9 28 -8 17 0 26
-5 24 -13 -2 -10 2 -10 17 -2 11 5 23 15 26 20 3 5 17 -2 31 -18 17 -18 27
-23 31 -14 2 6 9 10 14 6 5 -3 9 0 9 5 0 6 17 11 38 10 33 -1 34 -2 12 -9 -14
-4 -19 -8 -11 -9 8 -1 11 -7 7 -17 -4 -12 -2 -15 9 -10 18 7 21 -19 3 -31 -22
-14 -18 -43 5 -40 11 1 22 -4 24 -10 3 -8 -4 -13 -17 -13 -16 0 -20 -4 -16
-15 4 -11 -2 -15 -22 -16 l-27 -2 28 -4 c21 -3 27 -10 27 -28 0 -19 4 -23 22
-20 12 3 29 12 37 20 14 14 14 17 1 25 -9 6 -17 5 -21 -1 -4 -7 -9 -4 -12 5
-4 9 -2 16 3 16 6 0 10 9 10 19 0 10 7 21 15 25 8 3 15 10 15 15 0 7 -9 7 -25
1 -27 -10 -32 -2 -12 19 10 11 10 13 0 7 -7 -4 -13 -2 -13 3 0 6 4 11 10 11 5
0 9 3 7 8 -3 11 6 14 24 7 10 -4 15 -14 12 -25 -3 -10 0 -21 7 -25 8 -5 8 -10
0 -20 -7 -9 -8 -15 -1 -19 6 -4 8 -13 4 -21 -6 -18 8 -19 26 -2 11 9 12 9 7 0
-9 -16 12 -56 25 -48 5 4 9 13 9 21 0 9 -5 12 -11 8 -8 -4 -8 0 0 15 13 24 24
26 39 8 9 -10 6 -17 -8 -30 -27 -23 -25 -35 5 -29 15 2 25 0 25 -7 0 -6 -14
-14 -31 -18 -20 -4 -27 -9 -20 -16 7 -7 14 -7 23 0 7 6 25 11 41 11 22 0 25
-3 16 -14 -8 -10 -8 -14 -1 -14 6 0 16 -10 23 -22 9 -17 9 -20 -4 -15 -8 3
-19 1 -25 -5 -15 -15 -35 1 -29 23 3 10 0 22 -5 26 -6 3 -8 1 -4 -5 3 -6 2
-14 -4 -17 -8 -5 -8 -11 0 -20 13 -16 5 -35 -14 -35 -8 0 -16 -10 -19 -22 l-6
-23 -22 23 c-11 13 -24 21 -27 17 -4 -3 0 -10 8 -15 12 -8 11 -10 -5 -11 -16
-1 -16 -2 -3 -6 9 -2 19 -11 22 -20 4 -11 2 -14 -9 -9 -9 3 -15 0 -15 -9 0
-17 -6 -17 -35 -5 -19 7 -19 8 -2 15 13 5 15 11 7 20 -8 9 -8 15 0 20 20 12
10 26 -11 15 -15 -9 -18 -15 -10 -24 6 -7 8 -16 5 -19 -7 -7 -34 17 -34 31 0
22 -39 19 -64 -5 -14 -13 -26 -18 -26 -12 0 7 -3 9 -7 5 -11 -11 -31 47 -22
66 7 12 5 16 -8 14 -20 -3 -25 -56 -5 -56 7 0 10 -5 7 -11 -4 -6 -13 -8 -21
-5 -8 3 -24 -4 -35 -15 l-21 -21 7 21 c9 29 -12 56 -31 40 -17 -14 -19 2 -2
19 9 9 8 12 -5 12 -9 0 -17 -5 -17 -12 0 -6 -3 -8 -6 -5 -4 4 -1 13 6 22 8 9
8 15 2 15 -6 0 -14 -4 -17 -10 -3 -5 -11 -10 -16 -10 -6 0 -7 5 -3 11 4 7 8
28 9 49 l2 36 -64 -23 -63 -23 6 25 c4 15 2 25 -5 25 -6 0 -11 -5 -11 -12 0
-6 -3 -9 -6 -6 -3 4 0 16 6 29 11 19 10 21 -3 16 -14 -5 -14 -2 -5 18 15 34
25 31 25 -7 0 -18 5 -34 11 -36 7 -2 12 -11 12 -20 0 -12 7 -8 24 13 16 20 20
32 13 37 -7 4 -8 13 -1 29 7 15 13 19 18 11 4 -7 2 -12 -4 -12 -6 0 -8 -4 -5
-10 12 -20 27 -10 23 15 -3 15 -1 25 6 24 31 -4 39 1 26 16 -9 10 -9 15 -1 15
6 0 11 4 11 9 0 5 -9 7 -19 4 -13 -3 -18 -10 -14 -21 4 -10 2 -13 -5 -8 -7 4
-12 2 -12 -3 0 -6 -12 -11 -27 -10 -16 0 -22 3 -15 6 10 4 10 7 -2 17 -13 10
-12 15 9 38 14 17 27 24 30 17 5 -7 11 -6 21 2 35 29 2 36 -46 9 -14 -8 -31
-14 -39 -15 -8 0 -16 -5 -18 -12 -3 -7 4 -10 19 -7 13 2 17 2 11 -2 -7 -3 -13
-12 -13 -19 0 -7 -6 -15 -14 -18 -24 -10 -32 50 -9 71 10 9 19 31 20 47 l2 30
-11 -32 c-6 -18 -17 -33 -24 -33 -8 0 -13 -5 -11 -11 1 -6 -4 -14 -12 -17 -10
-3 -12 0 -8 12 4 9 2 16 -3 16 -6 0 -10 5 -10 11 0 6 7 9 14 6 10 -4 13 -1 9
9 -5 12 7 19 30 15 17 -3 5 17 -14 22 -15 4 -23 -1 -31 -19 -13 -29 -38 -32
-38 -5 0 15 -6 19 -20 16 -23 -4 -52 -30 -44 -38 3 -3 1 -8 -5 -12 -7 -4 -11
4 -11 18 0 28 -22 41 -39 24 -9 -9 -14 -8 -21 3 -7 11 -3 17 15 23 14 5 25 13
25 18 0 5 7 9 15 9 8 0 15 -7 15 -16 0 -8 -4 -12 -10 -9 -5 3 -10 1 -10 -4 0
-6 11 -11 25 -11 16 0 25 6 25 16 0 8 -4 12 -10 9 -5 -3 -10 -1 -10 6 0 6 8 9
20 6 11 -3 23 -1 26 4 3 5 30 9 60 9 53 0 54 0 54 29 0 17 -4 33 -10 36 -5 3
-10 0 -10 -7 0 -7 -5 -20 -10 -28 -9 -13 -11 -13 -20 0 -8 13 -10 12 -10 -2 0
-19 -18 -22 -58 -12 -21 6 -21 7 -5 19 10 8 15 17 11 21 -5 4 -19 -5 -32 -20
-14 -17 -26 -24 -30 -18 -4 6 -13 9 -21 5 -11 -4 -13 -1 -8 13 4 12 3 15 -5
10 -7 -4 -21 2 -32 12 -18 17 -19 20 -6 25 9 4 16 11 16 17 0 6 -5 8 -12 4 -6
-4 -22 -8 -36 -10 -19 -2 -23 1 -19 17 4 17 3 18 -9 8 -11 -9 -14 -8 -14 4 0
17 -35 41 -48 33 -4 -3 -14 -1 -22 5 -12 7 -9 9 9 9 24 0 24 1 6 14 -11 8 -32
12 -47 11 -20 -3 -26 0 -21 11 4 10 0 12 -12 8 -31 -12 -11 19 23 35 34 17 50
41 27 41 -9 0 -15 9 -15 23 0 27 -9 39 -21 31 -5 -3 -5 -13 0 -23 7 -13 6 -18
-5 -18 -7 0 -14 8 -14 17 0 10 -10 24 -22 33 l-23 15 34 9 c33 8 56 33 31 33
-13 0 -56 41 -56 55 -1 6 6 15 14 21 12 9 8 10 -17 6 -18 -2 -35 -11 -38 -18
-3 -8 -12 -14 -19 -14 -12 0 -12 4 2 25 13 19 13 25 3 25 -7 0 -26 15 -42 33
-16 17 -26 27 -23 20 8 -15 -13 -28 -25 -16 -6 6 -2 19 10 35 11 14 17 29 13
33 -4 5 1 5 11 2 20 -8 56 8 73 31 10 14 13 13 23 -6 6 -12 18 -22 26 -22 22
0 18 -18 -4 -25 -11 -3 -24 -12 -31 -20 -10 -11 -7 -13 17 -11 15 2 38 4 51 5
28 1 28 12 -3 45 -13 14 -21 26 -17 26 4 0 0 5 -8 10 -10 6 -11 10 -2 10 6 0
12 7 12 15 0 8 7 15 16 15 8 0 13 4 9 9 -4 8 9 15 37 20 4 0 5 -6 2 -14z
m1347 -1115 c6 0 8 -4 4 -9 -9 -16 12 -22 40 -11 20 8 26 7 23 -2 -3 -7 4 -20
15 -29 24 -19 14 -43 -14 -36 -23 6 -44 -27 -33 -51 4 -9 6 -21 5 -27 -1 -5 3
-4 11 3 11 11 10 14 -1 21 -9 6 -10 11 -2 15 17 11 33 -4 28 -25 -3 -11 -1
-19 4 -19 5 0 9 -5 9 -10 0 -6 -11 -8 -25 -4 -16 4 -25 2 -25 -6 0 -7 7 -10
15 -6 8 3 15 1 15 -5 0 -5 -7 -12 -15 -15 -8 -4 -15 -13 -15 -21 0 -13 -3 -13
-15 -3 -8 7 -15 18 -15 24 0 6 5 4 10 -4 11 -17 13 -10 4 14 -3 9 -12 12 -22
8 -15 -5 -15 -3 2 23 18 27 18 29 0 42 -10 7 -24 13 -31 13 -7 0 -10 6 -7 14
4 11 0 13 -15 9 -12 -3 -21 -1 -21 6 0 6 11 13 26 17 27 7 30 34 5 42 -10 3
-12 0 -8 -11 3 -9 0 -18 -8 -21 -18 -6 -30 10 -13 18 9 4 6 10 -9 22 -13 9
-23 21 -23 27 0 6 3 8 6 5 3 -4 17 0 31 7 22 12 28 11 40 -1 8 -8 19 -14 24
-14z m-338 -106 c9 -4 17 -16 18 -28 0 -11 3 -15 6 -8 2 6 14 12 25 12 15 0
18 -5 13 -20 -5 -15 -3 -18 9 -14 9 3 13 10 10 15 -3 5 2 9 10 9 9 0 16 -6 16
-12 1 -7 9 -3 19 10 22 25 33 29 25 7 -4 -9 0 -15 10 -15 18 0 22 -15 6 -25
-15 -9 -12 -25 5 -25 8 0 15 -6 16 -12 0 -10 2 -10 6 0 8 19 22 4 16 -18 -3
-11 -14 -20 -25 -20 -10 0 -37 -9 -60 -20 -40 -19 -40 -19 -45 0 -3 11 -9 17
-14 14 -5 -3 -9 3 -9 13 -1 17 -2 17 -15 -1 -13 -17 -15 -18 -15 -3 0 9 -5 17
-10 17 -6 0 -10 6 -9 13 3 28 -2 37 -22 37 -15 0 -19 4 -15 15 3 8 9 22 12 30
4 10 0 15 -10 15 -9 0 -16 7 -16 16 0 9 5 13 13 10 6 -3 20 -9 30 -12z m-643
-209 c-10 -13 -9 -15 11 -15 l22 0 -21 -23 c-20 -21 -20 -25 -7 -43 8 -11 15
-14 15 -6 0 15 42 16 57 1 8 -8 18 -6 35 5 14 9 28 13 31 10 4 -4 13 -1 22 6
8 7 15 8 15 2 0 -15 -28 -35 -39 -28 -5 4 -12 2 -16 -4 -3 -5 -2 -10 3 -10 6
0 8 -10 5 -22 -3 -15 -2 -19 4 -11 6 9 26 11 61 7 47 -5 54 -3 77 22 19 20 25
23 25 10 0 -25 19 -19 32 10 8 17 18 24 30 21 19 -5 26 9 7 15 -7 2 -5 9 5 17
14 12 16 12 11 -2 -4 -8 -1 -18 5 -22 8 -5 6 -14 -5 -31 -13 -21 -13 -24 -1
-24 8 0 20 8 26 18 11 16 11 16 6 0 -6 -20 -5 -21 18 -12 9 3 16 14 16 23 0
12 2 13 9 3 6 -11 13 -8 29 12 20 26 42 34 42 17 0 -6 -10 -17 -22 -25 -12 -9
-19 -18 -15 -22 3 -3 18 7 33 22 25 27 27 27 21 7 -3 -16 -1 -23 9 -23 8 0 14
8 14 18 0 10 5 23 12 30 15 15 58 16 58 1 0 -6 -8 -8 -19 -4 -11 3 -23 0 -27
-7 -4 -6 -2 -14 4 -16 7 -2 12 -8 12 -14 0 -6 -7 -8 -15 -5 -8 4 -17 2 -20 -3
-4 -6 -1 -10 6 -10 10 0 10 -3 1 -12 -22 -22 -14 -48 16 -48 21 0 24 -2 12
-10 -13 -8 -12 -11 6 -16 15 -4 20 -11 17 -25 -3 -10 -9 -19 -14 -19 -4 0 -13
-9 -19 -20 -10 -18 -8 -20 19 -20 30 0 35 7 45 62 6 34 24 68 36 68 6 0 10 5
10 10 0 6 -9 10 -21 10 -11 0 -17 5 -14 10 3 6 1 10 -4 10 -6 0 -11 7 -11 15
0 8 -5 15 -11 15 -5 0 -7 5 -4 10 3 6 11 10 16 10 6 0 7 -4 4 -10 -14 -22 16
-8 30 14 10 15 24 23 35 21 12 -2 21 3 25 16 7 21 21 25 27 8 2 -6 14 -5 33 5
47 25 58 21 50 -15 -5 -20 -2 -41 6 -56 12 -22 11 -27 -6 -39 -24 -18 -30 -12
-15 16 6 12 9 24 6 27 -3 3 -9 -3 -13 -13 -3 -10 -11 -22 -17 -26 -24 -17 -24
-6 -1 28 14 20 25 42 25 48 0 6 -6 2 -12 -9 -15 -27 -31 -36 -39 -23 -6 9 -12
8 -25 -3 -16 -13 -17 -12 -11 16 l7 30 -14 -25 c-13 -23 -13 -27 6 -47 17 -19
19 -25 8 -38 -7 -9 -8 -15 -2 -15 6 0 12 6 15 13 2 6 8 8 13 4 5 -5 1 -14 -9
-21 -9 -7 -17 -18 -17 -25 0 -6 -4 -11 -9 -11 -5 0 -7 10 -4 23 5 20 2 19 -21
-8 -26 -30 -34 -51 -16 -40 14 8 52 -14 44 -26 -3 -5 -21 -8 -40 -5 -26 5 -34
2 -34 -10 0 -8 -4 -12 -10 -9 -5 3 -10 -1 -10 -9 0 -13 4 -13 35 0 20 8 40 12
45 9 5 -3 12 -1 15 5 4 7 11 8 18 1 8 -6 19 -4 32 5 18 14 19 16 3 25 -10 6
-15 16 -11 25 3 9 0 19 -6 24 -9 5 -8 9 4 13 9 4 13 3 10 -3 -8 -13 1 -13 28
2 20 10 21 10 8 -6 -12 -15 -12 -19 1 -32 14 -14 18 -14 40 0 22 14 38 13 38
-3 0 -4 -16 -15 -35 -25 -20 -11 -38 -30 -41 -43 -4 -15 -17 -26 -36 -31 l-29
-7 20 -21 c18 -20 18 -23 4 -43 -8 -13 -21 -20 -29 -17 -17 7 -18 1 -2 -23 9
-15 8 -22 -3 -32 -24 -23 -41 -22 -34 1 3 11 2 20 -4 20 -11 0 -19 -28 -13
-51 6 -28 57 -8 92 36 42 53 101 107 109 99 3 -4 0 -9 -6 -11 -7 -3 -13 -10
-13 -16 0 -7 -12 -21 -26 -32 -15 -11 -29 -22 -33 -25 -3 -3 -14 -19 -23 -37
-12 -24 -13 -30 -3 -27 7 3 16 12 19 20 3 8 11 14 17 14 8 0 8 -4 -1 -15 -10
-12 -9 -16 4 -21 14 -5 24 -34 12 -34 -2 0 -12 -3 -21 -6 -9 -4 -15 -3 -14 2
5 30 -3 34 -21 11 -11 -14 -20 -29 -20 -34 0 -4 -10 -19 -21 -33 -17 -21 -20
-21 -14 -5 11 35 10 40 -7 37 -10 -2 -18 2 -18 8 0 6 -5 8 -12 3 -7 -4 -20 -6
-30 -5 -9 2 -19 -2 -23 -8 -3 -5 -14 -10 -23 -10 -14 1 -13 4 7 20 16 14 19
20 8 20 -8 0 -18 -6 -20 -12 -4 -10 -8 -10 -15 1 -7 10 -11 10 -17 1 -4 -6 -4
-14 -1 -17 6 -6 -23 -32 -36 -33 -15 0 -8 30 12 50 10 10 15 22 10 25 -4 3
-18 -11 -30 -30 -13 -21 -29 -35 -39 -33 -9 1 -22 -1 -28 -5 -9 -5 -13 -3 -13
7 0 16 11 20 38 17 10 -2 10 2 0 18 -16 26 -2 40 16 16 13 -18 14 -16 14 18 0
45 -16 45 -38 -1 -15 -31 -48 -47 -36 -17 10 27 -9 16 -29 -17 -10 -18 -20
-27 -23 -20 -5 17 -41 -4 -52 -31 -6 -16 -9 -18 -9 -5 -1 9 4 20 9 23 16 10 1
25 -25 25 -13 0 -29 -8 -34 -17 -9 -15 -10 -15 -11 -2 0 8 6 21 12 27 17 17
-9 34 -40 27 -15 -4 -21 -2 -17 5 3 5 1 10 -4 10 -6 0 -11 -7 -11 -15 0 -8 -4
-15 -9 -15 -5 0 -18 -15 -30 -32 -14 -23 -21 -27 -21 -15 0 9 4 17 8 17 8 0
32 43 32 57 0 4 -13 -6 -30 -22 -28 -27 -45 -24 -18 3 9 9 9 12 1 12 -7 0 -15
-5 -18 -10 -4 -6 -11 -8 -16 -4 -5 3 -16 0 -24 -6 -13 -11 -14 -8 -9 19 4 20
2 31 -4 31 -7 0 -9 7 -5 17 5 11 3 14 -6 8 -8 -4 -17 -2 -22 6 -8 12 -11 12
-18 -1 -6 -8 -13 -11 -17 -7 -4 4 -2 13 4 19 20 20 13 29 -8 11 -11 -10 -20
-21 -20 -26 0 -5 -6 -14 -13 -21 -10 -11 -15 -10 -25 1 -16 16 -12 45 6 51 11
3 12 0 3 -17 -16 -30 9 -29 28 1 11 17 11 23 1 26 -9 3 -9 6 1 13 10 6 8 9 -9
9 -23 0 -47 -17 -49 -33 -1 -5 -4 -12 -8 -15 -4 -4 -4 9 -1 28 5 24 4 31 -3
21 -8 -12 -12 -12 -25 -2 -18 15 -21 31 -5 31 5 0 7 -4 4 -10 -3 -5 -1 -10 5
-10 7 0 9 7 6 16 -4 9 -1 23 5 30 9 11 6 14 -19 14 -35 0 -52 -17 -31 -32 11
-7 11 -11 2 -15 -7 -2 -13 -11 -13 -19 0 -8 -2 -14 -4 -14 -2 0 -13 -3 -23 -7
-15 -6 -16 -4 -5 9 10 12 10 17 1 20 -8 3 -6 10 6 22 13 13 15 20 6 29 -6 6
-11 7 -11 2 0 -6 -5 -3 -10 5 -9 13 -14 11 -36 -14 -14 -15 -27 -26 -30 -24
-2 3 2 11 11 18 20 16 19 34 0 26 -9 -3 -18 1 -22 10 -5 14 -9 13 -25 -7 l-19
-24 6 25 c6 23 5 23 -8 8 -8 -10 -20 -18 -28 -17 -10 0 -11 2 -1 6 6 2 12 12
12 21 0 12 -3 13 -12 4 -17 -17 -28 -15 -28 6 -1 13 -5 11 -23 -10 -13 -16
-26 -28 -30 -28 -4 0 1 10 13 22 22 24 26 38 10 38 -5 0 -10 -4 -10 -10 0 -5
-4 -10 -10 -10 -15 0 -12 17 8 36 16 17 16 18 0 11 -15 -5 -18 -1 -18 25 0 26
-2 29 -15 18 -12 -10 -13 -15 -4 -20 6 -4 -1 -7 -16 -7 -19 0 -25 3 -20 15 5
13 3 13 -17 -1 -23 -16 -24 -19 -13 -48 4 -10 0 -19 -11 -23 -12 -5 -15 -2
-10 10 5 12 1 14 -15 9 -23 -8 -20 3 8 36 7 9 11 23 7 32 -5 15 -8 15 -31 0
l-25 -17 6 31 c4 19 3 34 -3 38 -14 8 12 36 37 40 9 1 16 8 15 13 -2 6 4 9 13
5 9 -3 14 -13 11 -24 -3 -11 0 -16 8 -13 7 3 16 0 20 -6 6 -9 10 -9 17 1 8 11
9 10 4 -3 -3 -10 -2 -18 2 -18 7 0 62 64 77 90 8 13 7 13 -9 1 -15 -13 -20
-12 -39 7 -17 17 -19 24 -9 34 9 9 12 8 12 -7 0 -17 1 -17 20 0 11 10 20 13
20 7 0 -7 6 -12 14 -12 21 0 31 -21 15 -31 -8 -5 -9 -9 -4 -9 6 0 4 -4 -3 -8
-29 -19 8 -50 51 -43 4 0 7 -3 7 -9 0 -5 5 -10 11 -10 5 0 7 4 4 10 -9 14 13
50 30 50 8 0 15 -4 15 -10 0 -5 7 -10 16 -10 11 0 14 -5 10 -17 -5 -13 0 -11
19 7 20 19 28 22 34 11 6 -9 11 -10 15 -2 4 6 5 15 2 20 -8 13 4 42 15 35 5
-3 9 2 9 11 0 31 25 9 28 -24 2 -19 -1 -31 -6 -27 -5 3 -7 -6 -4 -19 5 -30 18
-32 27 -5 7 21 25 28 25 10 0 -5 4 -10 8 -10 5 0 6 15 4 33 -3 17 -7 26 -9 20
-8 -24 -33 -14 -33 13 0 20 4 24 19 19 12 -3 21 0 25 10 3 8 11 15 17 15 8 0
8 -4 -1 -15z m1247 -255 c3 -11 10 -20 15 -20 5 0 6 9 3 20 -3 11 -2 20 4 20
5 0 13 -9 16 -20 6 -18 17 -24 38 -21 4 0 7 -5 7 -13 0 -7 7 -19 15 -26 13
-11 13 -15 3 -21 -7 -5 -13 -16 -13 -26 0 -11 -9 -19 -22 -21 -13 -2 -23 -7
-23 -12 0 -4 -11 -10 -25 -12 -13 -3 -22 -1 -19 4 4 5 -4 20 -16 33 -12 13
-19 28 -15 34 3 6 0 11 -7 11 -8 0 -14 15 -15 39 -2 30 2 41 15 44 31 8 34 7
39 -13z m9963 -5344 c0 -8 10 -13 25 -13 14 0 25 3 25 8 0 5 6 6 14 3 8 -3 16
-2 19 3 3 4 28 6 56 5 39 -3 51 -8 51 -20 0 -15 2 -15 10 -2 5 8 10 12 11 8 1
-5 3 -12 4 -18 1 -5 3 -17 4 -26 0 -8 6 -12 11 -9 6 3 10 2 10 -3 0 -6 -7 -12
-15 -16 -13 -5 -13 -9 -3 -25 16 -26 11 -30 -45 -34 -53 -3 -63 -9 -43 -26 10
-9 20 -9 40 0 31 15 41 8 27 -19 -9 -16 -7 -22 10 -33 l20 -14 -21 -22 c-11
-13 -29 -23 -40 -23 -10 0 -21 -4 -25 -9 -3 -5 -31 -13 -63 -16 -82 -9 -87
-12 -90 -42 -3 -33 -12 -44 -12 -14 0 20 -4 23 -27 18 -15 -3 -38 -1 -52 4
-17 7 -27 6 -31 -2 -5 -8 -14 -5 -29 10 -16 16 -26 19 -39 13 -9 -5 -35 -10
-57 -10 -153 -5 -170 -7 -187 -25 -10 -11 -19 -14 -23 -7 -3 6 -11 8 -16 4 -5
-3 -7 -10 -4 -15 4 -5 0 -9 -9 -9 -8 0 -17 6 -19 13 -4 7 -6 6 -6 -4 -1 -21
-28 -27 -110 -24 -47 2 -66 6 -73 19 -5 9 -18 16 -28 16 -11 0 -20 5 -20 10 0
6 4 10 9 10 5 0 14 14 21 30 13 32 30 40 30 14 0 -9 -5 -12 -12 -8 -6 4 -8 3
-5 -4 9 -14 47 -3 41 12 -3 7 10 16 28 21 26 8 33 15 32 35 -1 13 5 30 12 38
11 11 14 11 14 0 0 -7 12 0 26 16 19 19 23 30 15 35 -6 4 -9 15 -5 24 7 18 39
32 53 22 5 -3 13 -1 16 5 5 8 11 7 21 -1 12 -10 15 -10 12 2 -2 8 5 14 17 14
11 0 22 3 25 7 3 4 29 8 58 10 30 2 54 8 57 16 2 6 10 12 16 12 8 0 8 -4 -1
-15 -15 -19 76 20 103 43 15 14 17 13 17 -1 0 -10 1 -17 3 -17 1 1 31 9 67 19
82 24 80 24 80 7z m-3480 -4721 c7 -8 19 -15 26 -15 32 0 54 -34 54 -82 0 -42
-3 -50 -25 -58 -37 -14 -65 -46 -52 -59 8 -8 8 -11 -1 -11 -7 0 -12 -8 -12
-19 0 -10 -6 -23 -12 -28 -23 -17 -108 -3 -108 18 0 5 -10 23 -22 39 -17 23
-19 33 -10 42 9 9 12 9 12 0 0 -7 6 -12 14 -12 10 0 12 11 8 46 l-5 47 39 -27
c40 -27 52 -25 59 13 2 13 11 34 20 47 19 29 19 34 1 34 -18 0 -29 16 -21 30
9 14 21 12 35 -5z m80 -273 c0 -7 5 -10 10 -7 6 3 10 -1 10 -9 0 -8 5 -18 12
-22 7 -5 8 -2 3 7 -6 11 -5 12 6 2 7 -7 20 -13 29 -13 17 0 37 -38 45 -90 6
-35 6 -35 -9 -10 -8 14 -15 20 -16 13 0 -15 -42 -4 -53 14 -4 7 -15 13 -23 13
-21 0 -74 54 -74 77 0 10 5 30 12 44 11 23 13 24 30 10 10 -8 18 -21 18 -29z"/>
<path d="M9990 9960 c0 -11 -7 -23 -15 -26 -8 -4 -15 -18 -15 -32 0 -25 1 -25
15 -6 8 10 15 14 15 9 0 -6 10 -23 22 -38 24 -30 48 -91 48 -124 0 -12 4 -24
10 -28 5 -3 6 -13 3 -22 -5 -13 -2 -15 12 -10 17 7 17 6 1 -18 -9 -14 -13 -25
-8 -25 4 0 6 -17 4 -37 -4 -37 -3 -37 13 -18 l17 20 -8 -20 c-14 -38 -14 -148
0 -177 10 -19 11 -27 3 -25 -10 2 -11 -10 -4 -33 1 -3 -2 -6 -6 -7 -19 -4 -35
-38 -25 -50 8 -10 5 -13 -10 -13 -16 0 -19 -5 -15 -22 3 -16 2 -19 -5 -10 -5
7 -16 14 -24 16 -9 1 -23 8 -32 15 -8 7 -21 9 -28 5 -10 -6 -10 -5 -2 7 8 9 9
35 4 79 -16 126 -23 205 -21 239 1 18 -3 39 -8 45 -4 6 -9 18 -9 26 -2 47 -16
120 -23 120 -5 0 -6 7 -3 15 3 8 11 13 17 12 7 -1 13 13 15 30 3 28 1 32 -14
26 -10 -4 -13 -8 -7 -10 16 -6 5 -33 -12 -33 -8 0 -13 -8 -13 -17 0 -10 -4
-63 -11 -118 -14 -132 -13 -248 5 -290 9 -23 10 -35 3 -37 -19 -6 0 -157 21
-176 10 -8 16 -22 13 -30 -5 -11 -2 -12 13 -5 10 5 29 8 42 7 33 -2 122 80
122 113 0 13 4 21 10 18 19 -11 47 74 54 165 4 57 -28 226 -60 315 -14 40 -19
46 -25 30 -4 -12 -6 -3 -4 24 3 50 -9 85 -42 119 -27 27 -33 28 -33 2z"/>
<path d="M9665 9620 c-4 -6 -15 -8 -26 -5 -14 5 -17 3 -13 -9 7 -17 -11 -22
-21 -6 -8 13 -81 -24 -111 -57 -13 -15 -27 -23 -30 -20 -3 3 -21 -11 -40 -31
-23 -25 -30 -40 -23 -48 5 -6 7 -18 4 -26 -4 -9 4 -19 20 -26 14 -6 25 -17 24
-24 0 -10 -2 -10 -6 0 -9 22 -26 13 -19 -10 4 -13 11 -49 16 -80 5 -32 15 -71
23 -88 9 -16 12 -30 8 -30 -8 0 -3 -33 19 -134 5 -24 5 -47 -1 -57 -5 -11 -5
-20 0 -24 5 -3 9 -35 9 -72 -1 -42 3 -68 10 -71 7 -2 12 -10 12 -18 0 -12 4
-12 20 -2 11 7 20 21 20 31 0 13 5 17 16 13 10 -4 35 8 65 30 27 20 49 37 49
39 0 2 -10 1 -22 -2 -19 -5 -21 -3 -10 8 20 22 14 29 -25 26 l-38 -2 -18 75
c-10 41 -22 91 -27 110 -5 19 -18 66 -29 103 -12 38 -19 73 -16 78 4 5 2 9 -3
9 -10 0 -22 68 -22 122 0 34 -17 45 -35 22 -10 -14 -17 -16 -25 -8 -8 8 -4 16
16 29 18 11 29 14 32 7 2 -6 24 0 58 18 30 15 57 24 59 19 3 -4 11 -6 19 -3
16 6 44 -93 44 -153 0 -24 5 -49 11 -57 7 -8 14 -32 15 -53 2 -21 5 -40 6 -43
1 -3 2 -9 1 -14 -1 -4 4 -15 11 -23 9 -11 9 -16 -1 -23 -10 -5 -10 -9 -1 -12
17 -5 14 -106 -5 -152 -20 -48 -7 -70 26 -41 20 19 21 38 4 78 -5 13 -2 17 14
17 37 0 54 90 32 167 -5 18 -12 77 -15 130 -4 54 -9 118 -11 143 -3 25 -7 64
-9 88 -2 23 -10 49 -16 57 -14 17 -36 19 -45 5z"/>
<path d="M9113 9270 c-24 -10 -43 -24 -43 -30 0 -6 -6 -17 -12 -23 -27 -25
-87 -67 -96 -67 -6 0 -12 -6 -15 -14 -3 -8 -16 -16 -29 -18 -15 -2 -24 -11
-26 -25 -4 -26 -1 -27 68 -12 29 6 56 7 60 3 4 -5 11 -67 14 -138 4 -71 9
-133 12 -137 3 -5 7 -48 10 -96 9 -158 16 -173 65 -135 13 10 32 21 41 25 16
6 17 27 14 269 -2 145 -4 298 -5 341 -1 42 -4 77 -8 77 -5 0 -27 -9 -50 -20z"/>
<path d="M8683 9102 c-26 -8 -43 -20 -43 -29 0 -10 -6 -13 -15 -9 -9 3 -18 -1
-21 -9 -4 -8 -14 -15 -23 -15 -9 0 -25 -13 -34 -30 -10 -16 -23 -35 -30 -42
-12 -12 -28 -50 -57 -128 -19 -52 -27 -155 -15 -193 20 -64 40 -82 91 -80 25
1 51 6 57 11 7 5 24 12 38 15 14 4 44 25 65 47 21 22 42 40 45 40 12 0 20 -44
25 -131 5 -86 5 -87 -26 -117 -17 -17 -45 -35 -63 -40 -34 -10 -76 0 -78 18
-1 5 -3 15 -4 20 -1 6 -3 15 -4 21 -1 7 -10 5 -26 -5 -13 -9 -31 -16 -40 -16
-8 0 -15 -5 -15 -11 0 -6 -7 -9 -15 -6 -8 4 -17 2 -20 -4 -4 -5 -11 -7 -16 -4
-5 4 -9 -11 -9 -33 0 -53 35 -86 94 -88 58 -2 97 6 89 19 -3 6 -1 7 5 3 32
-20 195 93 228 157 20 37 29 153 14 162 -6 3 -8 9 -6 13 2 4 0 27 -5 52 -5 25
-11 65 -14 90 -34 277 -35 281 -61 307 -31 31 -55 34 -111 15z m12 -102 c15 0
24 -27 31 -95 2 -27 7 -61 11 -75 12 -48 12 -52 -4 -86 -17 -34 -64 -64 -102
-64 -31 0 -51 40 -58 116 -3 38 -10 77 -15 87 -6 11 -5 17 2 17 6 0 10 6 9 13
-7 37 65 103 99 91 8 -2 19 -4 27 -4z"/>
<path d="M8920 16414 c0 -7 -6 -19 -12 -26 -23 -24 -49 -78 -39 -78 6 0 11 -7
11 -15 0 -8 7 -15 15 -15 8 0 15 -4 15 -10 0 -5 -6 -10 -12 -10 -7 0 -13 -11
-13 -25 0 -14 6 -25 13 -25 6 0 12 -4 12 -10 0 -5 -6 -9 -12 -7 -8 1 -13 -8
-13 -22 0 -13 -6 -26 -12 -28 -12 -4 -15 5 -16 55 -1 28 -17 29 -17 1 0 -15
-5 -19 -15 -15 -9 3 -19 -3 -26 -16 -8 -16 -8 -19 1 -13 9 6 9 1 0 -16 -22
-42 -55 -76 -69 -71 -8 3 -11 0 -8 -5 3 -5 -3 -10 -14 -10 -11 -1 -17 2 -14 8
4 5 2 9 -3 9 -10 0 -22 -23 -22 -41 0 -5 9 -9 20 -9 11 0 20 -4 20 -9 0 -5
-10 -7 -22 -4 -22 5 -22 5 -3 -10 10 -8 26 -12 34 -9 9 4 12 1 7 -7 -5 -7 -14
-10 -21 -7 -7 2 -21 -4 -31 -15 -9 -10 -28 -19 -41 -19 -14 0 -23 -6 -23 -15
0 -8 -5 -15 -11 -15 -5 0 -7 -4 -4 -10 4 -6 -5 -10 -19 -10 -16 0 -26 -6 -26
-15 0 -8 -6 -15 -13 -15 -7 0 -23 -9 -35 -20 -12 -11 -25 -20 -30 -20 -5 0
-17 -9 -27 -20 -10 -12 -25 -18 -32 -16 -7 3 -13 1 -13 -4 0 -5 -22 -8 -48 -7
-35 1 -53 -3 -67 -16 -10 -10 -29 -17 -44 -16 -14 1 -34 -2 -44 -6 -10 -4 -23
-2 -32 5 -8 6 -23 9 -36 5 -13 -5 -25 -2 -29 6 -7 10 -12 10 -22 1 -11 -9 -17
-9 -26 0 -7 7 -12 8 -12 2 0 -5 -19 -8 -42 -8 -24 1 -48 -2 -54 -7 -6 -5 -23
-10 -38 -11 -14 -1 -26 -8 -26 -14 0 -12 -94 -40 -117 -36 -7 2 -13 -3 -13
-10 0 -10 -2 -10 -9 1 -7 11 -17 11 -57 1 -101 -25 -264 -32 -350 -15 -11 3
-33 14 -47 25 -21 17 -25 25 -17 39 16 30 1 61 -29 60 -14 -1 -30 -1 -36 1
-20 5 -42 0 -61 -15 -18 -14 -18 -15 0 -8 13 4 17 2 14 -7 -2 -7 -18 -14 -35
-14 -17 -1 -29 2 -26 7 2 4 -5 7 -17 7 -12 0 -19 -4 -15 -9 3 -6 -13 -9 -40
-7 -25 1 -48 -1 -51 -5 -6 -11 -67 1 -76 14 -4 7 -11 7 -20 0 -13 -10 -94 -16
-84 -6 3 3 -1 14 -8 25 -13 18 -11 64 4 73 4 2 5 16 2 31 -2 14 -7 21 -11 16
-4 -6 -22 -7 -46 -2 -22 4 -32 8 -21 9 12 1 16 6 12 17 -3 9 -6 18 -6 20 0 2
-5 4 -11 4 -5 0 -8 -4 -5 -9 11 -17 -56 -25 -68 -9 -12 16 -46 20 -46 6 0 -4
6 -8 14 -8 8 0 17 -4 21 -9 3 -6 -7 -9 -22 -8 -20 2 -35 -6 -51 -25 -13 -16
-30 -28 -38 -28 -8 0 -14 -4 -14 -10 0 -5 -6 -7 -14 -4 -7 3 -16 -2 -19 -10
-4 -9 -16 -16 -27 -16 -12 0 -19 4 -15 9 3 5 1 12 -5 16 -5 3 -10 -3 -10 -13
0 -23 -22 -44 -41 -39 -8 2 -10 2 -6 -1 12 -6 -53 -51 -68 -46 -6 3 -20 -7
-29 -21 -17 -25 -17 -28 0 -46 10 -11 12 -19 6 -19 -7 0 -11 -5 -10 -12 2 -7
-3 -12 -11 -13 -8 0 -16 -6 -19 -14 -3 -10 1 -12 17 -8 14 3 24 0 27 -8 3 -7
14 -11 25 -8 11 3 21 -1 24 -8 10 -31 12 -75 2 -86 -7 -10 -3 -13 14 -14 13 0
35 -2 49 -3 17 -2 36 8 63 36 21 21 44 38 52 38 8 0 19 9 25 20 6 11 15 20 21
20 6 0 7 -4 4 -10 -3 -5 -3 -10 0 -10 13 0 50 23 58 36 4 8 23 14 42 14 19 0
37 5 40 11 4 6 14 8 22 5 8 -3 12 -2 9 2 -2 4 14 8 37 8 377 8 517 5 697 -13
95 -9 279 1 303 16 1 1 31 4 67 6 95 5 173 14 275 31 188 30 246 49 388 126
18 9 40 17 49 18 9 0 32 9 50 19 18 11 45 18 61 17 15 -2 30 1 33 6 3 5 12 7
19 4 8 -3 19 1 25 9 6 8 18 11 26 8 9 -3 14 2 14 17 0 16 4 20 16 16 8 -3 24
-1 34 4 15 8 21 6 29 -7 9 -16 10 -16 11 -2 0 14 6 16 35 9 19 -4 55 -7 79 -6
25 1 40 -2 33 -6 -15 -9 -9 -14 28 -22 22 -5 26 -4 15 4 -13 9 -13 10 0 11 33
3 65 -4 72 -15 6 -8 8 -8 8 2 0 6 7 12 15 12 23 0 18 20 -7 29 -22 8 -22 8 3
14 14 4 31 18 39 31 7 14 17 23 22 20 4 -3 8 -1 8 4 0 5 11 15 25 22 23 12 25
18 20 68 -2 31 -8 58 -12 61 -15 11 -33 61 -27 76 4 9 -1 24 -11 35 -9 10 -14
23 -11 28 3 5 -16 31 -44 58 -27 26 -46 52 -43 57 4 6 -4 7 -21 3 -14 -3 -26
-3 -26 2 0 5 -17 9 -37 9 -21 1 -53 3 -70 5 -22 3 -33 0 -33 -8z"/>
<path d="M12638 4460 c3 -8 10 -18 16 -22 6 -4 5 -13 -5 -24 -8 -10 -9 -15 -4
-12 6 4 12 -2 12 -13 1 -10 -5 -19 -13 -19 -8 0 -13 3 -13 8 3 18 -2 32 -12
32 -5 0 -8 -4 -5 -9 4 -5 0 -12 -6 -15 -10 -3 -8 -9 5 -19 9 -8 17 -19 17 -25
0 -10 22 -22 41 -22 5 0 9 5 9 10 0 6 -8 10 -17 10 -14 0 -13 3 5 16 12 8 22
22 22 30 0 21 17 17 34 -8 11 -16 16 -18 17 -8 1 8 4 4 8 -10 5 -17 3 -31 -7
-43 -8 -9 -12 -20 -9 -24 4 -3 7 -1 7 7 0 9 9 11 30 7 26 -6 30 -4 30 15 0 11
-8 27 -17 33 -17 13 -17 14 -1 32 14 15 15 22 5 33 -9 10 -9 11 1 6 8 -5 12 0
12 13 0 23 -19 28 -38 9 -9 -9 -12 -8 -12 4 0 9 -7 19 -16 22 -23 9 -27 8 -20
-9 7 -18 -5 -20 -22 -2 -19 18 -61 17 -54 -3z"/>
<path d="M10544 1825 c-12 -8 -25 -11 -30 -7 -5 4 -3 0 4 -10 8 -9 10 -27 6
-42 -7 -31 -24 -35 -24 -6 0 11 5 20 12 20 6 0 9 2 6 5 -8 8 -39 -6 -33 -15 3
-5 1 -11 -5 -15 -5 -3 -10 1 -10 9 0 8 5 18 11 22 20 12 -18 26 -38 15 -10 -6
-14 -11 -9 -11 5 0 2 -7 -5 -16 -11 -14 -11 -18 4 -29 16 -12 16 -13 -5 -18
-12 -4 -25 -1 -29 4 -4 7 -16 8 -29 4 -19 -6 -21 -12 -17 -40 5 -28 3 -33 -11
-29 -9 3 -6 -2 8 -10 24 -14 24 -17 1 -20 -24 -3 -21 -16 3 -16 19 0 30 -7 38
-25 6 -14 15 -25 20 -25 9 0 6 22 -4 30 -4 3 1 14 12 23 19 16 20 16 20 -18 0
-19 4 -35 9 -35 5 0 16 -3 25 -6 11 -4 16 0 16 13 0 10 9 24 21 31 13 8 18 19
14 31 -7 24 41 36 50 13 3 -8 9 -12 12 -8 11 11 11 76 0 76 -5 0 -6 11 -3 25
4 14 1 29 -7 37 -7 6 -11 22 -9 35 5 27 3 28 -24 8z"/>
</g>
</svg>
